<?xml version="1.0" encoding="utf-8"?>
<!-- Generator: Adobe Illustrator 19.2.0, SVG Export Plug-In . SVG Version: 6.00 Build 0)  -->
<svg version="1.1" id="Layer_1" xmlns="http://www.w3.org/2000/svg" xmlns:xlink="http://www.w3.org/1999/xlink" x="0px" y="0px"
	 viewBox="0 0 620 500" style="enable-background:new 0 0 620 500;" xml:space="preserve">
<style type="text/css">
	.st0{fill:none;stroke:#7F7F7F;stroke-miterlimit:10;}
</style>
<path class="st0" d="M312.7,230.5c0,0-1.9-17.6-17.8-31.9c-16-14.3-33.6-23.5-36.9-33.6c0,0-36.1,32.7-27.7,84
	c8.4,51.2,59.6,57.1,73.1,57.1c13.4,0,19.3-5.9,19.3-5.9s-14.3-5.9-22.7-16.8s-1.7-32.7-1.7-32.7s0-7.6,17.6-18.5
	s24.4-22.7,24.4-22.7s-0.8,9.2,15.1,16c8,3.4,13.4,4.4,17.8,6c2.2,0.8,4.1,1.7,6,3.1c1.9,1.4,3.6,3.3,5.5,6
	c7.6,10.9,16.8,30.2,8.4,41.1c-4.2,5.5-9.2,10.3-15.5,13.9c-2,1.2-4.2,2.2-6.6,3.1c-4.8,1.8-10.3,3-16.5,3.2
	c-18.5,0.8-26.9-2.5-26.9-2.5s4.2,129.3-0.8,136c-5,6.7,11.8,9.2,11.8,9.2s2.5,4.2,3.4-12.6c0.8-16.8,1.7-35.3,0.8-52.1
	c-0.8-16.8-5-74.9-5-74.9 M375.3,298.5c4.6,0.9,31.7,5.9,54.8-11.8c28.6-21.9,25.3-58.9,24.8-64.2c-2.5-23.6-15.6-39.3-20.8-44.9
	c0,0,2.7,6.3-2.7,10.1c-5.5,3.8-22.7,3.4-34.9,17.4c-12.1,14.1-13.8,30.9-13.8,30.9l0,0 M224.3,231.4c0,0-23.5-21-19.3-58.8c4.2-37.8,25.2-62.1,23.9-73.1c-1.3-10.9-1.3-10.9-1.3-10.9
	s10.1,7.6,13.4,9.2s18.5,5.9,18.5,5.9s5-2.5,16.8,6.7c11.8,9.2,26.9,28.6,26.9,39.5 M276.4,110.4c0,0,20.2-12.6,23.5-21.8s3.4-14.3,3.4-14.3s19.3,11.8,31.1,23.5s14.3,30.2,13.4,39.5
	s-5,33.6-5,33.6s16.8-47,44.5-55.4c27.7-8.4,28-5,28-5s3.9,18.5,11.5,28.6c1.7,2.2,3.2,4.1,4.5,5.9c4.8,6.1,7.6,10.3,8.9,20.1
	c1.7,12.6,5.2,28,5.2,28 M293.2,193c0,0,13.9-8.5,52.7-8.2c38.9,0.3,47.2,17.1,47.2,17.1s-13.9,11.8-21.3,14.3c-7.4,2.5-19.4,0-19.4,0 M329.3,217.4c0,0-11.4,2.4-16.6,0 M121,247.3c0,0,34.4,22.7,53.7,28.6c19.3,5.9,60.5,0,60.5,0 M168,322c-21.8-1.7-36.1-2.1-47-17c-10.9-14.9-7.6-32.5-6.3-42.2c1.3-9.7,9.2-26.5-1.5-37.4
	c-10.7-10.9-40.9-16.8-40.9-16.8s9.2,5,7.6,16.8c-1.7,11.8-5.5,49.5,10.3,72.2s32.5,24.4,44.3,27.7c8.4,2.4,23.4,2.2,38,1.3
	c5.7-0.4,11.4-0.8,16.6-1.3c18.5-1.7,43.7-9.2,52.9-14.3c9.2-5,21.8-15,21.8-15 M198.1,324.2c0,0-22.5,3.7-30.1,48.2c-10.1,13.4,14.3,33.6,18.5,41.1c4.2,7.6,0.8,16,0.8,16s1.3-6.7,10.7-4.2
	c9.4,2.5,30.8,13.4,30.8,13.4s26.5,2.5,41.6-8.4s23.5-26.1,32.7-48.7c9.2-22.6,14.3-76.6,14.3-76.6 M354.5,301.9c0,0,20.8,47,60.8,52.1c25.1,3.2,43,0.4,58.5-0.1c9.2-0.3,17.5,0.3,26,3.4
	c22.7,8.4,35.3,10.1,35.3,10.1s8.4-12.6,12.6-32.7c4.2-20.2,6.7-36.1,0-52.1c-6.7-16-18.5-18.6-26-22.3s-26.9-8.8-39.5-7.9
	c-12.6,0.8-32.3,7.9-32.3,7.9s41.5-45.7,46.6-67.3s-3.4-37.2-9.2-53.2c-5.9-16,12.6-28.6,12.6-28.6s-20.2-4.2-38.6,0
	c-18.5,4.2-28.6,28.6-28.6,28.6 M474.6,348.1c11.8-4.2,27.7-5.9,27.7-5.9s18.5,4.2,23.5,8.8s9.2,16.4,9.2,16.4"/>

<line class="st0" x1="375.3" y1="225.5" x2="393.1" y2="202"/>

</svg>
