<?xml version="1.0" encoding="utf-8"?>
<!-- Generator: Adobe Illustrator 19.2.0, SVG Export Plug-In . SVG Version: 6.00 Build 0)  -->
<svg version="1.1" id="Layer_2" xmlns="http://www.w3.org/2000/svg" xmlns:xlink="http://www.w3.org/1999/xlink" x="0px" y="0px"
	 viewBox="0 0 200 200" style="enable-background:new 0 0 200 200;" xml:space="preserve">
<style type="text/css">
	.st0{fill:#909090;}
</style>

					<path class="st0" d="M115.9,50.9c0-0.1-0.1-0.3-0.3-0.1l0.1,0.3L115.9,50.9 M114.5,51.5c0,0.3,0.1,0.7,0.4,0.7c-0.2-0.4,0-0.3-0.2-0.8c0.1-0.2,0.3-0.2,0.4-0.1c0-0.1,0.3-0.2,0.2-0.4
						c-0.4,0-0.7,0.3-0.7,0.7C114.6,51.6,114.5,51.5,114.5,51.5 M121.1,72.3l0-0.1C121.1,72.2,121.1,72.2,121.1,72.3 M118.7,75.1c0.1,0.1,0.1,0.1,0.1,0.1C118.8,75.1,118.8,75,118.7,75.1 M117.3,71.8c0,0.1,0.1,0.1,0.1,0.2C117.4,71.9,117.3,71.8,117.3,71.8 M121.1,72.3l-0.1,0.4C121.1,72.7,121,72.5,121.1,72.3 M114.5,54.4c0-0.1,0-0.1-0.1-0.2L114.5,54.4C114.4,54.4,114.4,54.4,114.5,54.4 M119.5,66.4l0-0.1c0,0-0.1,0-0.2,0L119.5,66.4 M117,62.5c0.1,0.1,0.3-0.1,0.4-0.1c-0.1,0-0.2,0-0.3-0.1C117,62.4,117,62.5,117,62.5 M113.4,55.6l-0.1-0.1C113.4,55.5,113.4,55.5,113.4,55.6 M120.4,69.6C120.4,69.6,120.3,69.6,120.4,69.6C120.3,69.7,120.4,69.6,120.4,69.6 M108.1,52.5C108.2,52.5,108.2,52.5,108.1,52.5C108.2,52.5,108.2,52.5,108.1,52.5 M111.5,48.2L111.5,48.2c0.1,0.1,0.1,0.1,0.2,0.1L111.5,48.2 M114.2,71.3C114.3,71.3,114.3,71.3,114.2,71.3C114.3,71.1,114.3,71.2,114.2,71.3 M99,76.8c0.5,0-0.5,0.6,0.2,0.6C99.1,77.3,99.5,76.7,99,76.8 M114.4,54.6c0,0.1,0,0.1,0,0.2C114.4,54.6,114.4,54.6,114.4,54.6 M99.2,77.3L99.2,77.3L99.2,77.3C99.3,77.3,99.3,77.3,99.2,77.3 M112,82C112,82.1,112,82.1,112,82C112,82.1,112,82.1,112,82  M114,75.7l-0.1,0.2C114,75.9,114,75.8,114,75.7  M110.9,82.1c0-0.1,0.1-0.1,0-0.1c0,0,0,0,0,0C111,82,111,82,110.9,82.1 M110.4,78.2C110.4,78.2,110.4,78.3,110.4,78.2c0,0.1,0,0.2,0,0.2L110.4,78.2 M98.1,56.7c0.1,0.1,0.1,0.2,0.2,0.3C98.2,56.7,98.8,56.7,98.1,56.7 M114.3,54.4c0.1,0,0.1,0.1,0.1,0.1l0-0.1C114.4,54.4,114.3,54.4,114.3,54.4 M108.8,82.9l0-1.2c0,0.1,0,0.1,0,0.2c0,0.1,0,0.2,0,0.3C108.7,82.5,108.8,82.7,108.8,82.9 M92.8,69L92.8,69C92.8,69,92.8,69,92.8,69 M108.5,79.9c0.1-0.1,0.1-0.3,0.1-0.4c0,0,0,0-0.1-0.1L108.5,79.9 M98.3,56.9L98.3,56.9L98.3,56.9 M102.2,56.1c-0.5,0.1-0.2,0.4-0.3,0.6c-0.7,0.2-0.3-0.2-0.6-0.4c-0.4,0.2-0.7,0.5-1,0.5
						c0-0.1-0.1-0.1,0-0.2c-0.5,0.3-1.4,0-2,0.4c0,0-0.1-0.1-0.1-0.1c0.1,0.2,0.1,0.4,0.1,0.5c-0.3,0-0.5,0.2-0.6,0
						c0.2,0,0.2-0.1,0.3-0.2l-0.3,0.1c-0.3-0.4,0.4-0.1,0.4-0.4c-0.6,0.1-1.3,0.4-1.7,0.3c-0.1-0.3,1.1-0.1,0.4-0.4l0.7,0.1
						c-0.5-0.5,0.4,0-0.1-0.5c-0.9-0.1-1.1,0.2-2.1,0.2c-0.2,0.2,0.1,0.3-0.1,0.5c-1.3,0.5-1.3-0.6-2.2,0.1
						c-0.2,0.3-0.1,0.7-0.9,0.8l0.1-0.5c-0.9,0.4-0.2,0.7-1.2,1c0.1-0.2,0.6-0.5,0.4-0.5c-0.7,0.1-0.3,0.4-0.7,0.7l-0.3-0.2
						c-0.8,0.6-1.5,1.6-2.2,2.4c0-0.1,0-0.3-0.2-0.2c-0.8,1.2-1.8,2.4-2.6,3.5l0.1,0.6c-0.1,0.1-0.2,0.1-0.2,0
						c-0.3,0.4,0.2,0.1,0.2,0.4c-0.1,0.3-0.3,0.3-0.3,0.1c-0.1,0.5-0.2,1.1-0.3,1.7c-0.1,0.7-0.3,1.1-0.7,1.9l0-0.3
						c-0.2,0.6-0.1,0.9-0.1,1.1c0.1,0.2,0.2,0.4-0.1,1l0-0.1c-0.2,0.6-0.3,1.2-0.4,1.8c1.7-0.4,3.2-0.9,4.5-1
						c0.1-0.5,1.5-0.5,1.4-1.1c0.9-0.2,0.8,0.1,2-0.4c0.3-0.2,0.2-0.6,0.6-0.9l0.2,0.2c0,0,0.1-0.1,0.1-0.3c0-0.1,0-0.2,0-0.2
						c0,0,0.2,0.3,0.2,0.3c0,0,0.1-0.1,0.1-0.1c0,0-0.1-0.1-0.1-0.2c0.1-0.1,0.2-0.2,0.3-0.1c0.1,0.1,0,0.2,0,0.4
						c0,0,0.1-0.1,0.2-0.3c0.1-0.2,0.3-0.4,0.3-0.4c-0.1,0.1-0.2,0.4-0.3,0.6c0.4-0.6-0.1,0.2,0,0.2c0,0,0.1-0.1,0.1-0.2
						c0.1-0.2,0.2-0.5,0.3-0.6c-0.2,0.5-0.3,0.6-0.2,0.7L93,69.2c0,0.1,0,0.1,0,0.2c0,0,0,0.1,0,0.1c0,0,0,0.2,0,0.3L93,70.3
						c0.2-0.4,0.5-0.2,0.5,0.1l-0.3,0.1c0.2,0.2,0.2-0.3,0.4,0.1c-0.1,0.4-0.4,0.2-0.5,0l0,0.5c-0.1,0-0.1-0.1-0.3-0.2
						c0.2,0.2-0.5,0.8-0.2,1.2l-0.1,0c-0.2,1.1-0.2,1.7-0.3,2.6c0.3,0.1,0.1,0.4,0.3,0.7c-0.1,0.3-0.3,0.7-0.4,1
						c-0.1,0.2-0.1,0.4-0.2,0.6l-0.1,0.3l-0.1,0.4c-0.1,0.9,0.2,0.3,0.3,0.7c-0.1,0-0.3,0.4-0.4,0.6c-0.1,0.3-0.2,0.5-0.2,0.1
						c-0.2,0.9-0.3,1.4-0.4,2c-0.1,0.6-0.2,1.2-0.3,2c0.2-0.4,0.3-0.7,0.4-0.8c0,0.2-0.3,1-0.5,1.2l0,0c-0.1,0.4,0.1,0.4,0.1,0.6
						c0.5-0.4,0.9-0.7,1.4-1l0.8-0.5c0.3-0.2,0.6-0.4,0.8-0.5c0.2-0.1,0.5-0.3,0.7-0.4c0.2-0.1,0.5-0.2,0.7-0.4
						c0.2-0.1,0.4-0.2,0.6-0.4c0.1-0.1,0.2-0.2,0.3-0.3l0,0.1l1-0.7c0.5-0.2-0.2,0.3,0.2,0.3c1-0.9,1.9-0.8,2.8-1.5
						c0.6,0.1,1.3-0.3,1.9-0.8c0.7-0.6,1.2-1.2,1.8-1.5l-0.2-0.1c0.1-0.4,0.3-0.2,0.5-0.4c-0.1-0.1-0.3,0.2-0.3-0.1
						c0.7-1,1.4-1.9,1.9-3l0.1-0.2c0-0.1,0,0,0-0.1l0.1-0.1c0,0,0.1-0.1,0.1-0.1c0.1,0,0.1,0,0.1,0.1c0,0,0,0.1,0,0.2
						c0,0.1-0.1-0.5-0.1-0.9c0-0.4,0.1-0.6,0.1,0c0,0-0.1,0.6-0.1,0.6c0.1-0.3,0.2,0,0.3,0.2c0.2,0.4,0.3,0.7,0.5,1.1
						c0.2,0.4,0.4,0.8,0.6,1.2c-0.1-0.1-0.2,0-0.3-0.2c-0.1,0.4,0.4,1.3,0.6,1.2c0.1,0.3-0.2,0.1-0.2,0.3c0,0.4,0.5,0.8,0.4,1
						c0,0-0.1-0.1-0.1-0.1c0.2,0.2,0.2,1.1,0.4,0.8c0,0.7,0.4,1.2,0.3,1.7c0.4,0.3,0,1.1,0.5,1.2c-0.2,0-0.3,0.3-0.3,0.6
						c0,0.2,0,0.3,0.1,0.5c0,0.3,0.1,0.6,0.2,0.7c-0.1-0.2-0.1,0.7-0.3,0.5c0,0.9,0.1,1.7,0.4,1.3c0,0.1-0.1,0.3-0.1,0.4
						c0.2,0.3,1,0.3,1.5,0.3c0.6-0.1,1-0.2,1.3,0c0.6-0.3,1.1-0.6,1.5-1.1c0.2-0.2,0.4-0.5,0.5-0.7c0.1-0.2,0.2-0.4,0.3-0.6
						c0.4-0.8,0.5-1.5,0.6-2.2c0.2,0.1,0.1,0.5,0,0.8c-0.1,0.4-0.3,0.7,0,0.8c0.4-1.5,0.1-2.3,0.4-3.4c0.1-0.3,0.2,0.2,0.2,0.3
						c0-1.2,0.4-2.3,0.4-3.4c0,0,0.1,0.1,0.1,0.2c0-0.1,0-0.2,0.1-0.3c0-0.1,0-0.1-0.1-0.1c0,0,0,0,0,0c0,0,0,0.1,0,0.1
						c-0.3,0.2-0.5-0.7-0.6-0.9c0.5,0.6,0.3-0.6,0.8,0.4c0-0.1-0.1-0.3-0.2-0.4c0.1-0.1,0.1,0,0.2,0.3c0-0.4-0.2-0.6-0.2-1
						c0.1,0.2,0.1,0.3,0.2,0.6c-0.1-0.5-0.2-1.1-0.1-1.2c0,0.2,0.1,0.3,0.1,0.4c0-0.1,0-0.1,0-0.2c0-0.1,0,0,0.1-0.1
						c0.1,0,0.1-0.1,0.2-0.1c0.1,0,0.4,0.1,0.5,0.6c-0.2,0.5,0.1,0.4-0.1,0.9c0,0,0.2,0.1,0.2,0.1c0,0,0.1-0.3,0.1-0.3
						c0.1,0.1,0.2,0.2,0.3,0.3c0.1,0.1,0.2,0.2,0.2,0.4c0,0-0.3-0.2-0.3-0.2c0,0,0.1,0.1,0.2,0.3c0.1,0.2,0.2,0.4,0.2,0.4l-0.1-0.6
						c0.4,0.4,0.4-0.3,0.6,0.4c-0.1-0.1,0.2,0.5,0.2,1.1l0,0c0.2,0.2,0.4,0.3,0.4,0.9c0,0.3-0.3,0.6-0.3,0.8
						c0.2-0.1,0.3,0.4,0.4,0.9c0.1,0.5,0.2,1,0.4,0.6c-0.1,0.1-0.2,0.8-0.2,1c0,0,0.2-0.6,0.2-0.6c0,0.5,0,0.8,0,1.1
						c0,0.1,0,0.1,0,0.2c0,0.1,0,0.1,0,0.2c0,0,0,0,0,0c0.2,0,0.1-0.4,0.2-0.8c0-0.4,0-0.7,0.1-0.1c0,0,0,0.2-0.1,0.3
						c0.1,0.2,0.1,0.2,0.2,0.3l0.1,0.1c0,0,0,0,0,0l0-0.1l0.1-0.2c0.2-0.5,0.4-1,0.6-1.3c0.2,0.4-0.3,0.9-0.1,1.3
						c0.3-0.8,0.6-1.6,0.8-2.4c0.2-0.8,0.4-1.6,0.6-2.2c0,0-0.1,0.2-0.1,0.2c-0.2-0.3-0.1-0.5,0.1-0.7c0.1-0.2,0.4-0.6,0.3-1
						c0,0.2,0.2,0.3,0.2,0.2c0.1-0.3,0.1-0.5,0.1-0.7c0-0.2,0-0.4,0-0.7c-0.1-0.5-0.1-1-0.2-1.6l0.1,0.1c0.1-0.5,0-1.2,0-1.7
						c-0.1-0.1-0.2-0.4-0.3-0.2c0.3-0.8,0.1-1.5-0.2-2.2c-0.3-0.7-0.6-1.3-0.6-2c0.1,0.2,0.2,0.3,0.2,0.2c0,0-0.1-0.3-0.3-0.5
						c-0.1-0.3-0.3-0.5-0.3-0.5c-0.2,0.2-0.1,0.2-0.1,0.5c-0.2-0.1-0.4-0.3-0.5-0.6c0.3,0.4,0.3-0.2,0.4-0.4c0,0.1-0.2,0-0.2,0.1
						c0.1-0.7-0.5,0.1-0.6-0.7l0.1,0c-0.2-0.2-0.5-0.4-0.6-0.7c0.2-0.3,0.3,0.2,0.5,0.1c-0.3-0.4-0.9-0.5-0.9-1
						c0.2,0.1,0.3,0.3,0.5,0.5c0-0.6-0.1-0.6-0.3-0.9l0,0l-0.4-0.7l0.1,0.2c-0.9,0-0.8-0.8-1.7-1.2c0.8,0.3,0.3-0.1,0.5-0.2
						c-0.1-0.2-0.2-0.5-0.1-0.5c-0.4-0.1-0.2-0.6-0.8-0.8c0.1-0.1-0.2-0.3,0-0.4c-0.3-0.3-0.1,0.2-0.2,0.2c-0.7-0.4-0.6-1.5-1.4-2.2
						c-0.5-0.7-0.9-0.7-1.2-1.5c0.1-0.3,0.4,0.2,0.4,0.2c0.1-0.5,0-0.8-0.2-1.2c0.1,0.1,0.2,0,0.3-0.1c0-0.3-0.4-0.2-0.2-0.6
						c0.1,0.1,0.3,0.2,0.4,0.3c-0.1-0.4-0.2-0.7-0.2-1.1c0.2-0.1,0.2,0.3,0.3,0.4c0-0.4,0.1-1.1-0.1-1.3l-0.2,0.2
						c0-0.2,0.2,0,0.2,0.1c0.1,0.4-0.2,0.5-0.3,0.5c0,0,0-0.3,0-0.3c-0.3,0.1-0.4,0.4-0.3,0.7c0,0.3,0.2,0.7,0.2,1
						c0,0-0.1-0.1-0.2-0.1c-0.1-0.1-0.2-0.1-0.2-0.1c0,0,0.4,0.6,0.4,0.6c-0.1,0.1-0.3,0.3-0.4,0c-0.2,0.5,0.2,0.4,0,0.8
						c0,0-0.1,0-0.1,0l0.2,0.4c-0.1-0.1-0.3,0.1-0.3-0.1c-0.1,0.9,0.7,1.1,0.5,1.5l0-0.1c0.6,0.9,0.3,0,1,0.5c0,0-0.1,0.2-0.2,0.4
						c-0.1,0.2-0.2,0.4-0.2,0.4l0.3-0.1c0,0.1,0.1,0.3,0,0.3c0.4,0.2,0.1-0.1,0.4,0c0.1,0.6,0.9,1.1,0.6,1.5c0.3,0-0.2-0.5,0.3-0.2
						c-0.3,0.4,0.5,0.5,0.6,1c-0.3,0.1-0.5-0.4-0.4,0.1c0.5-0.1,0.5,0.8,0.8,1c0.3-0.2,0.7,0.6,1.1,1.1c-0.1,0,0.5,1.1,0.7,1.7
						l-0.1,0c0.4-0.1,0.6,0.5,0.9,0.9c-0.2,0.1-0.3,0-0.5-0.1l0.2,0.4c0.1,0,0.3,0.1,0.4,0.4l-0.3,0c0.2,0.5,0.7,1,0.7,1.7
						c0.3,0,0.5-0.8,0.9,0c-0.1,0.1-0.3,0.2-0.5,0c0,0.1,0.2,0.2,0.2,0.4l-0.3-0.2c0,0.4,0.2,0.1,0.3,0.4c-0.2,0-0.1,0.2-0.3,0.2
						c0-0.1,0-0.3-0.1-0.3c0,0.3,0,0.7-0.1,0.8c0.1,0,0.3-0.1,0.3,0.2c0.1,0.6-0.2,0.2-0.2,0.6c0.2,0.1,0.1,0.5,0.4,0.5
						c0,0.2-0.1,0.2-0.2,0.3c0.2,0.3,0.1,1.4,0.4,1l0-0.1c0,0,0,0,0,0l0,0l0,0c0.3,1-0.2,2-0.2,3l-0.1,0c0,0.5-0.1,0.9,0,1.5
						c0,0.2-0.2,0.1-0.3-0.1c0,0.4,0,0.7-0.2,0.8c0-0.6-0.1-0.2,0-0.5c-0.2,0.2-0.2-0.2-0.3,0.8c-0.1-0.7-0.2-0.6-0.2-0.3
						c0,0,0.1,0.3,0.1,0.3c-0.1,0.3-0.1,0.4-0.2,0.4l0-1.1c0-0.1-0.1-0.2-0.1-0.1c0,0.1,0,0,0,0.1c0,0.1-0.1,0.3-0.1,0.3
						c0,0-0.1-0.3,0-0.9c-0.1,0.3,0,0.6-0.1,1.1c0-0.2,0-0.7,0-1c0-0.3,0.1-0.6,0.1-0.6c0-0.2-0.1-0.1-0.2-0.1
						c-0.1,0.1-0.2,0.1-0.3-0.2c-0.1,0.1-0.3,0.4-0.6,0c-0.2-0.5,0.2-0.8,0.4-0.6c0.1,0.1,0.1,0.2,0,0.2c0.1,0.2,0.2,0.3,0.3,0.1
						l-0.1,0c0-0.2-0.1-0.4-0.1-0.6c-0.1-0.3-0.2-0.5,0-0.4c-0.4-0.5-0.3-0.1-0.1,0.3c-0.1-0.5-0.4-0.9-0.6-1.3
						c-0.2-0.4-0.5-0.7-0.7-1.2c0.1,0.2,0.1,0.5,0,0.4c-0.8-1.4-0.4-0.2-0.9-0.9c-0.3-0.7,0.1-0.6-0.5-1.1c-0.4-0.7-0.2-0.7,0-0.7
						c-0.3-0.2-0.6-0.6-0.9-1.1c-0.1,0.2-0.3,0.4-0.4,0.6l0.1-0.7c-0.1,0.4-0.1,0.7-0.2,0.9c0,0,0.2,0.2,0.2,0.2
						c-0.1,0.2-0.2,0.5-0.2,0.3c0,0.6,0.3,0.5,0.3,1.4c-0.2,0.2-0.1,1.2-0.4,0.9c0.3-1.1-0.3-0.3-0.1-1.5c0,0.3-0.1,0.5-0.2,0.8
						c0,0,0-0.2,0-0.3c-0.5,1.2,0.2,1.2-0.1,2.5c-0.1-0.3-0.4,0.1-0.4,0.4c0.1-0.6,0.3-0.1,0.4,0.4c-0.1,0.4-0.2,0.7-0.1,0.7
						c0,0.1,0.1,0.2,0,0.4l0.1-0.3c0.2,0.1,0.1,0.4,0.1,0.8c-0.1,0,0-0.4-0.1-0.2c0.2,0.5-0.5,0.9-0.4,1.5c-0.2,0.3-0.3,0-0.5,0.2
						c0.1,0.7-0.4,0.7-0.3,1.4c0.3-0.2,0.2-0.2,0.4,0.3l0-1.2l0.2,0.8c0.1-0.3,0-0.7,0.1-0.9c0.1,0.4,0.1,0.3,0.3,0.2
						c-0.4,0.4,0,1-0.3,1.5l-0.6-0.1c-0.4,0.7,0,1.4-0.6,2.1l0.2-0.2c0.2,0.2-0.3,0.5-0.3,0.7c-0.1-0.1-0.3-0.1-0.4-0.2
						c0.1,0.1-0.2,0.1-0.2,0.6c0,0-0.2-0.2-0.2-0.2c-0.1,0-0.3,0.2-0.5,0.4c-0.1,0.1-0.2,0.2-0.4,0.3c-0.1,0-0.1-0.1-0.1-0.2
						c0,0,0,0,0,0c0,0,0,0,0.1,0c0.2-0.1,0.3-0.4,0.4-0.3c0-0.1,0-0.1,0-0.2c0,0,0,0-0.1,0c0.1-0.1,0-0.1-0.1-0.2
						c-0.1-0.1-0.1-0.2,0-0.3c-0.1,0-0.3,0-0.3-0.2c0,0,0.1,0,0.1,0c-0.1,0-0.2-0.5-0.4-0.2c0.6-0.9-0.3-2.4,0-3.2
						c-0.2-0.6-0.4-1.3-0.6-1.9c0.1,0,0.1,0,0.1,0.1c0-0.8-0.7-0.3-0.7-1.2c0.2-0.5,0.3,0.4,0.3,0.1c0.6-0.3-0.4-1-0.3-1.7l0.1,0.1
						c0.1-0.5-0.6-1-0.9-1.7c0,0,0.1,0,0.1,0c-0.1-0.1-0.2-0.2-0.4-0.3c-0.1-0.2-0.3-0.4-0.4-0.6c-0.3-0.4-0.5-0.8-0.8-1.1
						c0.2-0.1,0.3,0.2,0.3-0.3c-0.2-0.3-0.1,0.6-0.5,0.1c-0.1-0.4-0.3-1.1-0.3-1.6l0.4,0.7c-0.1-0.9-0.6-0.9-0.8-1.4l0-0.2
						c-0.4-0.5-0.5-0.6-0.7-0.6c0,0-0.1-0.1-0.1,0c0,0.1,0,0.1,0,0.2c0,0.1,0,0.3-0.2,0.3l0.1,0.4c0,0.2,0,0.3,0,0.4
						c0,0.5,0,0.4-0.1,0.3c-0.1,0-0.1,0.1-0.1,0.7c0,0-0.3-0.7-0.3-0.7c0,0.5,0,1.2,0,1.9c0,0.6-0.1,1.1-0.2,1.5
						c-0.1-0.5,0.1-1.7,0.1-3.1c-0.1,0.8-0.4,2.3-0.3,2.6c0-0.1,0-0.2,0.1-0.4c0-0.1,0-0.3,0.1-0.4c0.1,0.5,0,0.9,0,1.2
						c-0.1,0.4-0.1,0.6-0.3,0.9c-0.3-0.2-0.5,0.1-0.8,0.5c-0.3,0.4-0.6,0.9-1,0.9c-0.5,1.1-1.6,1.6-2.6,2.2c0.7,0.3-0.3,0.2,0.1,0.7
						c-0.3,0.2-0.4,0.2-0.4,0.2c0,0-0.3,0-0.5,0.1c-0.3,0-0.5,0.1-0.5,0.1c-0.3-0.1,0.2-0.3,0.1-0.4C97.7,77.3,98,77,97.5,77
						c0.2,0.2-0.1,0.4-0.5,0.5l0.6,0c-0.8,0.7-1-0.1-1.8,0.6l0.2-0.3c-0.2,0.2-0.7,0.4-1.1,0.6c-0.1,0.1-0.3,0.2-0.3,0.2l0,0.1
						c0,0.1-0.1,0.3-0.1,0.4c0-0.1,0-0.3,0-0.3c-0.1,0-0.3,0.3-0.7,0.7l-0.2,0.2c0,0-0.1,0.1-0.1,0.1c0,0,0,0,0-0.1
						c0-0.1,0.1-0.2,0.2-0.4l0.2-0.2c-0.1,0-0.4,0.3-0.1,0c0.1-0.1,0.2-0.2,0.2-0.2c-0.1,0.1-0.3,0.1-0.2-0.1c0,0,0.2,0,0.2,0
						c0.1-0.1,0.1-0.2,0.1-0.2c0-0.1-0.1-0.2-0.1-0.3L93.9,78c0-0.1,0-0.2,0-0.3c0-0.2,0-0.5,0-0.7c0.4,0.1,0.8-0.8,0.9-1.3l0.1,0
						c0.3-1.4,0.1-2.5,0.1-3.8c0.3-0.4,0.5-1.1,0.6-1.8c0.1-0.6,0.2-1.3,0.3-2c0.1-0.7,0.2-1.3,0.4-2c-0.1,0.4-0.4,0.3-0.4,0
						c0.2-0.7-0.2-0.8,0.3-1.4l0,0.2c0.3-0.5,0.4-1.1,0.5-1.6c0-0.3,0.1-0.5,0.1-0.7c0-0.2,0-0.4,0-0.6l-0.6,1l-0.2,0.4
						c-0.2-0.3-1.8,1.4-2.8,2.4c-0.5,0.6-1,0.9-1.4,1.3c-0.1,0.1-0.2,0.1-0.3,0.2c-0.1,0-0.1,0.1-0.2,0.1c-0.1,0-0.2,0-0.4,0
						c-0.2,0.3-0.5,0.5-0.7,0.7l-0.1-0.3c-0.7,0.3-1.1,0.5-2,1l0.1-0.3c-0.3,0.1-0.3,0.4-0.4,0.6c0,0.1-0.1,0.3-0.1,0.4
						c-0.1,0.1-0.1,0.2-0.2,0.2c0,0-0.2-0.4-0.2-0.4c-0.1,0.1-0.3,0-0.3,0c-0.1,0-0.1,0-0.3,0.1c0,0-0.1,0-0.2,0
						c0.1-0.1,0.2-0.2,0.3-0.2c0.1-0.2,0.4-0.4-0.2-0.3c0.2,0,0.2-0.1,0.2-0.2c0,0,0-0.3,0-0.4c0-0.2,0-0.4,0-0.5l0.2,0.2
						c-0.2-0.5-0.3-0.6-0.2-1.3c0.1-0.1,0.3,0,0.1,0.1c0.3-0.4-0.1-0.5,0.3-1l0.1,0.3c0.2-0.5,0.1-0.5,0.1-0.8
						c0-0.4,0.5-0.9,0.8-0.8c-0.1-0.1-0.1-0.5,0.1-0.7c0.1,0,0.1,0.1,0.1,0.2c0.6-0.6,0.4-1.3,1-1.6c0.1,0,0.1,0,0.2,0
						c-0.4,0.5-0.7,1-0.7,0.9c0.2,0.1,0.6-0.3,0.6,0.3c0.1-0.5,0.2-1.3,0.6-1.6c0,0,0.1,0,0.1,0l0,0.1c0.1-0.1,0.2-0.2,0.2-0.3
						c0.1-0.1,0.2-0.1,0.4-0.3c0.2,0.1,0.5-0.3,0.7-0.5c-0.2-0.2,0.1-0.4-0.3-0.4c0,0,0,0.1-0.1,0.2c0,0-0.1,0.1-0.1,0.1l0,0
						c-0.1,0.1-0.3,0.3-0.5,0.5c0.1-0.2,0.1-0.5,0.5-0.6c0-0.2,0-0.5,0-0.6c0.5,0,1.3-0.2,1.5,0c0.6-0.6,1.6-0.9,2-1.6
						c0.2-0.1,0.3,0.1,0.4,0.1c-0.1,0.1-0.3,0.1-0.3,0.2c0.4-0.3,1.3-0.3,1.4-0.7c0.6,0.1-0.3,0.4,0.5,0.2L96,58.7
						c1.6,0.5,2.7-0.9,4.7-0.2c-0.1,0-0.2-0.1-0.2-0.1c1.1,0.1,2.4-0.2,3.4-0.6c1.1-0.5,2.1-1,3.2-1.5c0.6-0.3,0.5-0.5,0.7-0.9
						l0.3,0.1c0,0,0.1-0.2,0.1-0.4c0.1-0.2,0.1-0.4,0.1-0.4c0.2-0.4,0.6-0.6,1-0.8c0.4-0.2,0.8-0.6,0.9-1.2l-0.3,0
						c0.3-0.3,0.6-1.2,0.7-1.1c0-0.1-0.1-0.2,0-0.3l0.1,0.1c0,0,0.1-0.3,0.1-0.5c0-0.3,0.1-0.5,0.1-0.5c0.4-0.7,0.6,0.3,1-0.8
						c0.1-0.5-0.2-1.4-0.3-1.2c0,0.2-0.2,0.4-0.3,0.4l0-0.4c-0.4-0.2-0.9-0.5-1.4,0.3c0,0,0,0.2,0.1,0.3c0,0.2,0.1,0.3,0.1,0.3
						l-0.3,0.1l0.1-0.5c-0.3,0.2-0.2,0.4-0.1,0.7c-0.1,0-0.2,0.1-0.3,0.2l0.2,0.7c-0.2,0-0.2-0.4-0.5-0.1c0.1,0.3,0.5-0.1,0.4,0.4
						c-0.3,0.2-0.4,0-0.4,0.4c-0.1,0-0.2-0.1-0.2-0.3c0,0.3-0.3,0.7-0.2,1c-0.4,0.1-0.5,0.9-0.9,0.6c0,0.1-0.1,0.6-0.2,0.9
						c0-0.7-0.8,0.7-1.1,0.2c0.1,0.6-0.9,1-1.3,1.6c0-0.1,0-0.2,0.1-0.2c-0.3,0.2-0.5,0.1-0.7,0.1c0.2,0.4-0.3,0.7-0.5,1.1
						c-0.6-0.2,0.1-0.5-0.2-0.8c0.2,0.3-0.6,0.6-0.3,0.8c-0.4-0.1-0.3,0-0.6-0.2c0.1,0.5-0.3,0.2-0.5,0.6c-0.6-0.1-0.2-0.4-0.7-0.1
						C101.8,56.3,102.2,56.1,102.2,56.1 M88.5,61.1L88.5,61.1c0.1-0.1,0.2-0.2,0.2-0.3C88.6,60.9,88.6,60.9,88.5,61.1 M87.6,62.1
						c0.1-0.1,0.2-0.3,0.3-0.4c0.1,0,0.2,0.1,0.1,0.2C88.1,61.8,87.8,62,87.6,62.1 M90.8,61.5c-0.1,0.2-0.2,0.2-0.2,0.1
						c0.1-0.1,0.1-0.1,0.2-0.2c0,0,0,0,0,0C90.8,61.4,90.8,61.4,90.8,61.5z"/>

				
</svg>
