<?xml version="1.0" encoding="utf-8"?>
<!-- Generator: Adobe Illustrator 19.2.0, SVG Export Plug-In . SVG Version: 6.00 Build 0)  -->
<svg version="1.1" id="Layer_2" xmlns="http://www.w3.org/2000/svg" xmlns:xlink="http://www.w3.org/1999/xlink" x="0px" y="0px"
	 viewBox="0 0 200 200" style="enable-background:new 0 0 200 200;" xml:space="preserve">
<style type="text/css">
	.st0{fill:#909090;}
</style>

					<path class="st0" d="M102.2,56.1c-0.5,0.1-0.2,0.4-0.3,0.6c-0.7,0.2-0.3-0.2-0.6-0.4c-0.4,0.2-0.7,0.5-1,0.5
						c0-0.1-0.1-0.1,0-0.2c-0.5,0.3-1.4,0-2,0.4c0,0-0.1-0.1-0.1-0.1c0.1,0.2,0.1,0.4,0.1,0.5c-0.3,0-0.5,0.2-0.6,0
						c0.2,0,0.2-0.1,0.3-0.2l-0.3,0.1c-0.3-0.4,0.4-0.1,0.4-0.4c-0.6,0.1-1.3,0.4-1.7,0.3c-0.1-0.3,1.1-0.1,0.4-0.4l0.7,0.1
						c-0.5-0.5,0.4,0-0.1-0.5c-0.9-0.1-1.1,0.2-2.1,0.2c-0.2,0.2,0.1,0.3-0.1,0.5c-1.3,0.5-1.3-0.6-2.2,0.1
						c-0.2,0.3-0.1,0.7-0.9,0.8l0.1-0.5c-0.9,0.4-0.2,0.7-1.2,1c0.1-0.2,0.6-0.5,0.4-0.5c-0.7,0.1-0.3,0.4-0.7,0.7l-0.3-0.2
						c-0.8,0.6-1.5,1.6-2.2,2.4c0-0.1,0-0.3-0.2-0.2c-0.8,1.2-1.8,2.4-2.6,3.5l0.1,0.6c-0.1,0.1-0.2,0.1-0.2,0
						c-0.3,0.4,0.2,0.1,0.2,0.4c-0.1,0.3-0.3,0.3-0.3,0.1c-0.1,0.5-0.2,1.1-0.3,1.7c-0.1,0.7-0.3,1.1-0.7,1.9l0-0.3
						c-0.2,0.6-0.1,0.9-0.1,1.1c0.1,0.2,0.2,0.4-0.1,1l0-0.1c-0.2,0.6-0.3,1.2-0.4,1.8c1.7-0.4,3.2-0.9,4.5-1
						c0.1-0.5,1.5-0.5,1.4-1.1c0.9-0.2,0.8,0.1,2-0.4c0.3-0.2,0.2-0.6,0.6-0.9l0.2,0.2c0,0,0.1-0.1,0.1-0.3c0-0.1,0-0.2,0-0.2
						c0,0,0.2,0.3,0.2,0.3c0,0,0.1-0.1,0.1-0.1c0,0-0.1-0.1-0.1-0.2c0.1-0.1,0.2-0.2,0.3-0.1c0.1,0.1,0,0.2,0,0.4
						c0,0,0.1-0.1,0.2-0.3c0.1-0.2,0.3-0.4,0.3-0.4c-0.1,0.1-0.2,0.4-0.3,0.6c0.4-0.6-0.1,0.2,0,0.2c0,0,0.1-0.1,0.1-0.2
						c0.1-0.2,0.2-0.5,0.3-0.6c-0.2,0.5-0.3,0.6-0.2,0.7L93,69.2c0,0.1,0,0.1,0,0.2c0,0,0,0.1,0,0.1c0,0,0,0.2,0,0.3L93,70.3
						c0.2-0.4,0.5-0.2,0.5,0.1l-0.3,0.1c0.2,0.2,0.2-0.3,0.4,0.1c-0.1,0.4-0.4,0.2-0.5,0l0,0.5c-0.1,0-0.1-0.1-0.3-0.2
						c0.2,0.2-0.5,0.8-0.2,1.2l-0.1,0c-0.2,1.1-0.2,1.7-0.3,2.6c0.3,0.1,0.1,0.4,0.3,0.7c-0.1,0.3-0.3,0.7-0.4,1
						c-0.1,0.2-0.1,0.4-0.2,0.6l-0.1,0.3l-0.1,0.4c-0.1,0.9,0.2,0.3,0.3,0.7c-0.1,0-0.3,0.4-0.4,0.6c-0.1,0.3-0.2,0.5-0.2,0.1
						c-0.2,0.9-0.3,1.4-0.4,2c-0.1,0.6-0.2,1.2-0.3,2c0.2-0.4,0.3-0.7,0.4-0.8c0,0.2-0.3,1-0.5,1.2l0,0c-0.1,0.4,0.1,0.4,0.1,0.6
						c0.5-0.4,0.9-0.7,1.4-1l0.8-0.5c0.3-0.2,0.6-0.4,0.8-0.5c0.2-0.1,0.5-0.3,0.7-0.4c0.2-0.1,0.5-0.2,0.7-0.4
						c0.2-0.1,0.4-0.2,0.6-0.4c0.1-0.1,0.2-0.2,0.3-0.3l0,0.1l1-0.7c0.5-0.2-0.2,0.3,0.2,0.3c1-0.9,1.9-0.8,2.8-1.5
						c0.6,0.1,1.3-0.3,1.9-0.8c0.7-0.6,1.2-1.2,1.8-1.5l-0.2-0.1c0.1-0.4,0.3-0.2,0.5-0.4c-0.1-0.1-0.3,0.2-0.3-0.1
						c0.7-1,1.4-1.9,1.9-3l0.1-0.2c0-0.1,0,0,0-0.1l0.1-0.1c0,0,0.1-0.1,0.1-0.1c0.1,0,0.1,0,0.1,0.1c0,0,0,0.1,0,0.2
						c0,0.1-0.1-0.5-0.1-0.9c0-0.4,0.1-0.6,0.1,0c0,0-0.1,0.6-0.1,0.6c0.1-0.3,0.2,0,0.3,0.2c0.2,0.4,0.3,0.7,0.5,1.1
						c0.2,0.4,0.4,0.8,0.6,1.2c-0.1-0.1-0.2,0-0.3-0.2c-0.1,0.4,0.4,1.3,0.6,1.2c0.1,0.3-0.2,0.1-0.2,0.3c0,0.4,0.5,0.8,0.4,1
						c0,0-0.1-0.1-0.1-0.1c0.2,0.2,0.2,1.1,0.4,0.8c0,0.7,0.4,1.2,0.3,1.7c0.4,0.3,0,1.1,0.5,1.2c-0.2,0-0.3,0.3-0.3,0.6
						c0,0.2,0,0.3,0.1,0.5c0,0.3,0.1,0.6,0.2,0.7c-0.1-0.2-0.1,0.7-0.3,0.5c0,0.9,0.1,1.7,0.4,1.3c0,0.1-0.1,0.3-0.1,0.4
						c0.2,0.3,1,0.3,1.5,0.3c0.6-0.1,1-0.2,1.3,0c0.6-0.3,1.1-0.6,1.5-1.1c0.2-0.2,0.4-0.5,0.5-0.7c0.1-0.2,0.2-0.4,0.3-0.6
						c0.4-0.8,0.5-1.5,0.6-2.2c0.2,0.1,0.1,0.5,0,0.8c-0.1,0.4-0.3,0.7,0,0.8c0.4-1.5,0.1-2.3,0.4-3.4c0.1-0.3,0.2,0.2,0.2,0.3
						c0-1.2,0.4-2.3,0.4-3.4c0,0,0.1,0.1,0.1,0.2c0-0.1,0-0.2,0.1-0.3c0-0.1,0-0.1-0.1-0.1c0,0,0,0,0,0c0,0,0,0.1,0,0.1
						c-0.3,0.2-0.5-0.7-0.6-0.9c0.5,0.6,0.3-0.6,0.8,0.4c0-0.1-0.1-0.3-0.2-0.4c0.1-0.1,0.1,0,0.2,0.3c0-0.4-0.2-0.6-0.2-1
						c0.1,0.2,0.1,0.3,0.2,0.6c-0.1-0.5-0.2-1.1-0.1-1.2c0,0.2,0.1,0.3,0.1,0.4c0-0.1,0-0.1,0-0.2c0-0.1,0,0,0.1-0.1
						c0.1,0,0.1-0.1,0.2-0.1c0.1,0,0.4,0.1,0.5,0.6c-0.2,0.5,0.1,0.4-0.1,0.9c0,0,0.2,0.1,0.2,0.1c0,0,0.1-0.3,0.1-0.3
						c0.1,0.1,0.2,0.2,0.3,0.3c0.1,0.1,0.2,0.2,0.2,0.4c0,0-0.3-0.2-0.3-0.2c0,0,0.1,0.1,0.2,0.3c0.1,0.2,0.2,0.4,0.2,0.4l-0.1-0.6
						c0.4,0.4,0.4-0.3,0.6,0.4c-0.1-0.1,0.2,0.5,0.2,1.1l0,0c0.2,0.2,0.4,0.3,0.4,0.9c0,0.3-0.3,0.6-0.3,0.8
						c0.2-0.1,0.3,0.4,0.4,0.9c0.1,0.5,0.2,1,0.4,0.6c-0.1,0.1-0.2,0.8-0.2,1c0,0,0.2-0.6,0.2-0.6c0,0.5,0,0.8,0,1.1
						c0,0.1,0,0.1,0,0.2c0,0.1,0,0.1,0,0.2c0,0,0,0,0,0c0.2,0,0.1-0.4,0.2-0.8c0-0.4,0-0.7,0.1-0.1c0,0,0,0.2-0.1,0.3
						c0.1,0.2,0.1,0.2,0.2,0.3l0.1,0.1c0,0,0,0,0,0l0-0.1l0.1-0.2c0.2-0.5,0.4-1,0.6-1.3c0.2,0.4-0.3,0.9-0.1,1.3
						c0.3-0.8,0.6-1.6,0.8-2.4c0.2-0.8,0.4-1.6,0.6-2.2c0,0-0.1,0.2-0.1,0.2c-0.2-0.3-0.1-0.5,0.1-0.7c0.1-0.2,0.4-0.6,0.3-1
						c0,0.2,0.2,0.3,0.2,0.2c0.1-0.3,0.1-0.5,0.1-0.7c0-0.2,0-0.4,0-0.7c-0.1-0.5-0.1-1-0.2-1.6l0.1,0.1c0.1-0.5,0-1.2,0-1.7
						c-0.1-0.1-0.2-0.4-0.3-0.2c0.3-0.8,0.1-1.5-0.2-2.2c-0.3-0.7-0.6-1.3-0.6-2c0.1,0.2,0.2,0.3,0.2,0.2c0,0-0.1-0.3-0.3-0.5
						c-0.1-0.3-0.3-0.5-0.3-0.5c-0.2,0.2-0.1,0.2-0.1,0.5c-0.2-0.1-0.4-0.3-0.5-0.6c0.3,0.4,0.3-0.2,0.4-0.4c0,0.1-0.2,0-0.2,0.1
						c0.1-0.7-0.5,0.1-0.6-0.7l0.1,0c-0.2-0.2-0.5-0.4-0.6-0.7c0.2-0.3,0.3,0.2,0.5,0.1c-0.3-0.4-0.9-0.5-0.9-1
						c0.2,0.1,0.3,0.3,0.5,0.5c0-0.6-0.1-0.6-0.3-0.9l0,0l-0.4-0.7l0.1,0.2c-0.9,0-0.8-0.8-1.7-1.2c0.8,0.3,0.3-0.1,0.5-0.2
						c-0.1-0.2-0.2-0.5-0.1-0.5c-0.4-0.1-0.2-0.6-0.8-0.8c0.1-0.1-0.2-0.3,0-0.4c-0.3-0.3-0.1,0.2-0.2,0.2c-0.7-0.4-0.6-1.5-1.4-2.2
						c-0.5-0.7-0.9-0.7-1.2-1.5c0.1-0.3,0.4,0.2,0.4,0.2c0.1-0.5,0-0.8-0.2-1.2c0.1,0.1,0.2,0,0.3-0.1c0-0.3-0.4-0.2-0.2-0.6
						c0.1,0.1,0.3,0.2,0.4,0.3c-0.1-0.4-0.2-0.7-0.2-1.1c0.2-0.1,0.2,0.3,0.3,0.4c0-0.4,0.1-1.1-0.1-1.3l-0.2,0.2
						c0-0.2,0.2,0,0.2,0.1c0.1,0.4-0.2,0.5-0.3,0.5c0,0,0-0.3,0-0.3c-0.3,0.1-0.4,0.4-0.3,0.7c0,0.3,0.2,0.7,0.2,1
						c0,0-0.1-0.1-0.2-0.1c-0.1-0.1-0.2-0.1-0.2-0.1c0,0,0.4,0.6,0.4,0.6c-0.1,0.1-0.3,0.3-0.4,0c-0.2,0.5,0.2,0.4,0,0.8
						c0,0-0.1,0-0.1,0l0.2,0.4c-0.1-0.1-0.3,0.1-0.3-0.1c-0.1,0.9,0.7,1.1,0.5,1.5l0-0.1c0.6,0.9,0.3,0,1,0.5c0,0-0.1,0.2-0.2,0.4
						c-0.1,0.2-0.2,0.4-0.2,0.4l0.3-0.1c0,0.1,0.1,0.3,0,0.3c0.4,0.2,0.1-0.1,0.4,0c0.1,0.6,0.9,1.1,0.6,1.5c0.3,0-0.2-0.5,0.3-0.2
						c-0.3,0.4,0.5,0.5,0.6,1c-0.3,0.1-0.5-0.4-0.4,0.1c0.5-0.1,0.5,0.8,0.8,1c0.3-0.2,0.7,0.6,1.1,1.1c-0.1,0,0.5,1.1,0.7,1.7
						l-0.1,0c0.4-0.1,0.6,0.5,0.9,0.9c-0.2,0.1-0.3,0-0.5-0.1l0.2,0.4c0.1,0,0.3,0.1,0.4,0.4l-0.3,0c0.2,0.5,0.7,1,0.7,1.7
						c0.3,0,0.5-0.8,0.9,0c-0.1,0.1-0.3,0.2-0.5,0c0,0.1,0.2,0.2,0.2,0.4l-0.3-0.2c0,0.4,0.2,0.1,0.3,0.4c-0.2,0-0.1,0.2-0.3,0.2
						c0-0.1,0-0.3-0.1-0.3c0,0.3,0,0.7-0.1,0.8c0.1,0,0.3-0.1,0.3,0.2c0.1,0.6-0.2,0.2-0.2,0.6c0.2,0.1,0.1,0.5,0.4,0.5
						c0,0.2-0.1,0.2-0.2,0.3c0.2,0.3,0.1,1.4,0.4,1l0-0.1c0,0,0,0,0,0l0,0l0,0c0.3,1-0.2,2-0.2,3l-0.1,0c0,0.5-0.1,0.9,0,1.5
						c0,0.2-0.2,0.1-0.3-0.1c0,0.4,0,0.7-0.2,0.8c0-0.6-0.1-0.2,0-0.5c-0.2,0.2-0.2-0.2-0.3,0.8c-0.1-0.7-0.2-0.6-0.2-0.3
						c0,0,0.1,0.3,0.1,0.3c-0.1,0.3-0.1,0.4-0.2,0.4l0-1.1c0-0.1-0.1-0.2-0.1-0.1c0,0.1,0,0,0,0.1c0,0.1-0.1,0.3-0.1,0.3
						c0,0-0.1-0.3,0-0.9c-0.1,0.3,0,0.6-0.1,1.1c0-0.2,0-0.7,0-1c0-0.3,0.1-0.6,0.1-0.6c0-0.2-0.1-0.1-0.2-0.1
						c-0.1,0.1-0.2,0.1-0.3-0.2c-0.1,0.1-0.3,0.4-0.6,0c-0.2-0.5,0.2-0.8,0.4-0.6c0.1,0.1,0.1,0.2,0,0.2c0.1,0.2,0.2,0.3,0.3,0.1
						l-0.1,0c0-0.2-0.1-0.4-0.1-0.6c-0.1-0.3-0.2-0.5,0-0.4c-0.4-0.5-0.3-0.1-0.1,0.3c-0.1-0.5-0.4-0.9-0.6-1.3
						c-0.2-0.4-0.5-0.7-0.7-1.2c0.1,0.2,0.1,0.5,0,0.4c-0.8-1.4-0.4-0.2-0.9-0.9c-0.3-0.7,0.1-0.6-0.5-1.1c-0.4-0.7-0.2-0.7,0-0.7
						c-0.3-0.2-0.6-0.6-0.9-1.1c-0.1,0.2-0.3,0.4-0.4,0.6l0.1-0.7c-0.1,0.4-0.1,0.7-0.2,0.9c0,0,0.2,0.2,0.2,0.2
						c-0.1,0.2-0.2,0.5-0.2,0.3c0,0.6,0.3,0.5,0.3,1.4c-0.2,0.2-0.1,1.2-0.4,0.9c0.3-1.1-0.3-0.3-0.1-1.5c0,0.3-0.1,0.5-0.2,0.8
						c0,0,0-0.2,0-0.3c-0.5,1.2,0.2,1.2-0.1,2.5c-0.1-0.3-0.4,0.1-0.4,0.4c0.1-0.6,0.3-0.1,0.4,0.4c-0.1,0.4-0.2,0.7-0.1,0.7
						c0,0.1,0.1,0.2,0,0.4l0.1-0.3c0.2,0.1,0.1,0.4,0.1,0.8c-0.1,0,0-0.4-0.1-0.2c0.2,0.5-0.5,0.9-0.4,1.5c-0.2,0.3-0.3,0-0.5,0.2
						c0.1,0.7-0.4,0.7-0.3,1.4c0.3-0.2,0.2-0.2,0.4,0.3l0-1.2l0.2,0.8c0.1-0.3,0-0.7,0.1-0.9c0.1,0.4,0.1,0.3,0.3,0.2
						c-0.4,0.4,0,1-0.3,1.5l-0.6-0.1c-0.4,0.7,0,1.4-0.6,2.1l0.2-0.2c0.2,0.2-0.3,0.5-0.3,0.7c-0.1-0.1-0.3-0.1-0.4-0.2
						c0.1,0.1-0.2,0.1-0.2,0.6c0,0-0.2-0.2-0.2-0.2c-0.1,0-0.3,0.2-0.5,0.4c-0.1,0.1-0.2,0.2-0.4,0.3c-0.1,0-0.1-0.1-0.1-0.2
						c0,0,0,0,0,0c0,0,0,0,0.1,0c0.2-0.1,0.3-0.4,0.4-0.3c0-0.1,0-0.1,0-0.2c0,0,0,0-0.1,0c0.1-0.1,0-0.1-0.1-0.2
						c-0.1-0.1-0.1-0.2,0-0.3c-0.1,0-0.3,0-0.3-0.2c0,0,0.1,0,0.1,0c-0.1,0-0.2-0.5-0.4-0.2c0.6-0.9-0.3-2.4,0-3.2
						c-0.2-0.6-0.4-1.3-0.6-1.9c0.1,0,0.1,0,0.1,0.1c0-0.8-0.7-0.3-0.7-1.2c0.2-0.5,0.3,0.4,0.3,0.1c0.6-0.3-0.4-1-0.3-1.7l0.1,0.1
						c0.1-0.5-0.6-1-0.9-1.7c0,0,0.1,0,0.1,0c-0.1-0.1-0.2-0.2-0.4-0.3c-0.1-0.2-0.3-0.4-0.4-0.6c-0.3-0.4-0.5-0.8-0.8-1.1
						c0.2-0.1,0.3,0.2,0.3-0.3c-0.2-0.3-0.1,0.6-0.5,0.1c-0.1-0.4-0.3-1.1-0.3-1.6l0.4,0.7c-0.1-0.9-0.6-0.9-0.8-1.4l0-0.2
						c-0.4-0.5-0.5-0.6-0.7-0.6c0,0-0.1-0.1-0.1,0c0,0.1,0,0.1,0,0.2c0,0.1,0,0.3-0.2,0.3l0.1,0.4c0,0.2,0,0.3,0,0.4
						c0,0.5,0,0.4-0.1,0.3c-0.1,0-0.1,0.1-0.1,0.7c0,0-0.3-0.7-0.3-0.7c0,0.5,0,1.2,0,1.9c0,0.6-0.1,1.1-0.2,1.5
						c-0.1-0.5,0.1-1.7,0.1-3.1c-0.1,0.8-0.4,2.3-0.3,2.6c0-0.1,0-0.2,0.1-0.4c0-0.1,0-0.3,0.1-0.4c0.1,0.5,0,0.9,0,1.2
						c-0.1,0.4-0.1,0.6-0.3,0.9c-0.3-0.2-0.5,0.1-0.8,0.5c-0.3,0.4-0.6,0.9-1,0.9c-0.5,1.1-1.6,1.6-2.6,2.2c0.7,0.3-0.3,0.2,0.1,0.7
						c-0.3,0.2-0.4,0.2-0.4,0.2c0,0-0.3,0-0.5,0.1c-0.3,0-0.5,0.1-0.5,0.1c-0.3-0.1,0.2-0.3,0.1-0.4C97.7,77.3,98,77,97.5,77
						c0.2,0.2-0.1,0.4-0.5,0.5l0.6,0c-0.8,0.7-1-0.1-1.8,0.6l0.2-0.3c-0.2,0.2-0.7,0.4-1.1,0.6c-0.1,0.1-0.3,0.2-0.3,0.2l0,0.1
						c0,0.1-0.1,0.3-0.1,0.4c0-0.1,0-0.3,0-0.3c-0.1,0-0.3,0.3-0.7,0.7l-0.2,0.2c0,0-0.1,0.1-0.1,0.1c0,0,0,0,0-0.1
						c0-0.1,0.1-0.2,0.2-0.4l0.2-0.2c-0.1,0-0.4,0.3-0.1,0c0.1-0.1,0.2-0.2,0.2-0.2c-0.1,0.1-0.3,0.1-0.2-0.1c0,0,0.2,0,0.2,0
						c0.1-0.1,0.1-0.2,0.1-0.2c0-0.1-0.1-0.2-0.1-0.3L93.9,78c0-0.1,0-0.2,0-0.3c0-0.2,0-0.5,0-0.7c0.4,0.1,0.8-0.8,0.9-1.3l0.1,0
						c0.3-1.4,0.1-2.5,0.1-3.8c0.3-0.4,0.5-1.1,0.6-1.8c0.1-0.6,0.2-1.3,0.3-2c0.1-0.7,0.2-1.3,0.4-2c-0.1,0.4-0.4,0.3-0.4,0
						c0.2-0.7-0.2-0.8,0.3-1.4l0,0.2c0.3-0.5,0.4-1.1,0.5-1.6c0-0.3,0.1-0.5,0.1-0.7c0-0.2,0-0.4,0-0.6l-0.6,1l-0.2,0.4
						c-0.2-0.3-1.8,1.4-2.8,2.4c-0.5,0.6-1,0.9-1.4,1.3c-0.1,0.1-0.2,0.1-0.3,0.2c-0.1,0-0.1,0.1-0.2,0.1c-0.1,0-0.2,0-0.4,0
						c-0.2,0.3-0.5,0.5-0.7,0.7l-0.1-0.3c-0.7,0.3-1.1,0.5-2,1l0.1-0.3c-0.3,0.1-0.3,0.4-0.4,0.6c0,0.1-0.1,0.3-0.1,0.4
						c-0.1,0.1-0.1,0.2-0.2,0.2c0,0-0.2-0.4-0.2-0.4c-0.1,0.1-0.3,0-0.3,0c-0.1,0-0.1,0-0.3,0.1c0,0-0.1,0-0.2,0
						c0.1-0.1,0.2-0.2,0.3-0.2c0.1-0.2,0.4-0.4-0.2-0.3c0.2,0,0.2-0.1,0.2-0.2c0,0,0-0.3,0-0.4c0-0.2,0-0.4,0-0.5l0.2,0.2
						c-0.2-0.5-0.3-0.6-0.2-1.3c0.1-0.1,0.3,0,0.1,0.1c0.3-0.4-0.1-0.5,0.3-1l0.1,0.3c0.2-0.5,0.1-0.5,0.1-0.8
						c0-0.4,0.5-0.9,0.8-0.8c-0.1-0.1-0.1-0.5,0.1-0.7c0.1,0,0.1,0.1,0.1,0.2c0.6-0.6,0.4-1.3,1-1.6c0.1,0,0.1,0,0.2,0
						c-0.4,0.5-0.7,1-0.7,0.9c0.2,0.1,0.6-0.3,0.6,0.3c0.1-0.5,0.2-1.3,0.6-1.6c0,0,0.1,0,0.1,0l0,0.1c0.1-0.1,0.2-0.2,0.2-0.3
						c0.1-0.1,0.2-0.1,0.4-0.3c0.2,0.1,0.5-0.3,0.7-0.5c-0.2-0.2,0.1-0.4-0.3-0.4c0,0,0,0.1-0.1,0.2c0,0-0.1,0.1-0.1,0.1l0,0
						c-0.1,0.1-0.3,0.3-0.5,0.5c0.1-0.2,0.1-0.5,0.5-0.6c0-0.2,0-0.5,0-0.6c0.5,0,1.3-0.2,1.5,0c0.6-0.6,1.6-0.9,2-1.6
						c0.2-0.1,0.3,0.1,0.4,0.1c-0.1,0.1-0.3,0.1-0.3,0.2c0.4-0.3,1.3-0.3,1.4-0.7c0.6,0.1-0.3,0.4,0.5,0.2L96,58.7
						c1.6,0.5,2.7-0.9,4.7-0.2c-0.1,0-0.2-0.1-0.2-0.1c1.1,0.1,2.4-0.2,3.4-0.6c1.1-0.5,2.1-1,3.2-1.5c0.6-0.3,0.5-0.5,0.7-0.9
						l0.3,0.1c0,0,0.1-0.2,0.1-0.4c0.1-0.2,0.1-0.4,0.1-0.4c0.2-0.4,0.6-0.6,1-0.8c0.4-0.2,0.8-0.6,0.9-1.2l-0.3,0
						c0.3-0.3,0.6-1.2,0.7-1.1c0-0.1-0.1-0.2,0-0.3l0.1,0.1c0,0,0.1-0.3,0.1-0.5c0-0.3,0.1-0.5,0.1-0.5c0.4-0.7,0.6,0.3,1-0.8
						c0.1-0.5-0.2-1.4-0.3-1.2c0,0.2-0.2,0.4-0.3,0.4l0-0.4c-0.4-0.2-0.9-0.5-1.4,0.3c0,0,0,0.2,0.1,0.3c0,0.2,0.1,0.3,0.1,0.3
						l-0.3,0.1l0.1-0.5c-0.3,0.2-0.2,0.4-0.1,0.7c-0.1,0-0.2,0.1-0.3,0.2l0.2,0.7c-0.2,0-0.2-0.4-0.5-0.1c0.1,0.3,0.5-0.1,0.4,0.4
						c-0.3,0.2-0.4,0-0.4,0.4c-0.1,0-0.2-0.1-0.2-0.3c0,0.3-0.3,0.7-0.2,1c-0.4,0.1-0.5,0.9-0.9,0.6c0,0.1-0.1,0.6-0.2,0.9
						c0-0.7-0.8,0.7-1.1,0.2c0.1,0.6-0.9,1-1.3,1.6c0-0.1,0-0.2,0.1-0.2c-0.3,0.2-0.5,0.1-0.7,0.1c0.2,0.4-0.3,0.7-0.5,1.1
						c-0.6-0.2,0.1-0.5-0.2-0.8c0.2,0.3-0.6,0.6-0.3,0.8c-0.4-0.1-0.3,0-0.6-0.2c0.1,0.5-0.3,0.2-0.5,0.6c-0.6-0.1-0.2-0.4-0.7-0.1
						C101.8,56.3,102.2,56.1,102.2,56.1 M88.5,61.1L88.5,61.1c0.1-0.1,0.2-0.2,0.2-0.3C88.6,60.9,88.6,60.9,88.5,61.1 M87.6,62.1
						c0.1-0.1,0.2-0.3,0.3-0.4c0.1,0,0.2,0.1,0.1,0.2C88.1,61.8,87.8,62,87.6,62.1 M90.8,61.5c-0.1,0.2-0.2,0.2-0.2,0.1
						c0.1-0.1,0.1-0.1,0.2-0.2c0,0,0,0,0,0C90.8,61.4,90.8,61.4,90.8,61.5 M76.5,77.1c-0.2,0.3,0.2,0.4,0.3,0.5c-0.2,0.4-0.3,0-0.6,0c-0.1,0.3,0,0.6-0.1,0.8c-0.1,0-0.1,0-0.1-0.1
						c0.1,0.4-0.5,0.7-0.4,1.1c0,0-0.1,0-0.1,0c0.2,0.1,0.3,0.2,0.4,0.3c-0.1,0.1,0,0.4-0.2,0.3c0.1-0.1,0-0.1,0-0.2l0,0.2
						c-0.4-0.1,0-0.3-0.2-0.4c-0.1,0.3-0.1,0.8-0.3,0.9c-0.3-0.2,0.3-0.5-0.2-0.5l0.3-0.2c-0.6-0.1,0.2-0.2-0.4-0.3
						c-0.4,0.3-0.2,0.6-0.6,0.9c0.1,0.2,0.2,0.1,0.3,0.3c-0.2,0.8-1-0.1-1,0.6c0.1,0.2,0.4,0.5,0,0.7l-0.2-0.3
						c-0.3,0.4,0.3,0.6-0.2,0.8c-0.1-0.2,0.1-0.4,0-0.4c-0.4,0.1,0,0.3-0.1,0.5l-0.3-0.2c-0.3,0.5-0.4,1.1-0.7,1.6
						C72,84,72,83.9,71.8,83.9c-0.3,0.7-0.9,1.3-1.5,1.7l0.1,0.4c0,0-0.2,0-0.2-0.1c-0.2,0.2,0.1,0.1,0.2,0.3
						c-0.1,0.1-0.3,0.1-0.3-0.1c-0.1,0.5-0.3,1.4-0.8,1.7l0-0.1c-0.3,0.3,0.3,0.7-0.2,0.9l0-0.1c-0.6,0.6-0.9,1.6-1.6,1.8
						c0.3,0.3-0.6,0.6-0.2,0.9c-0.5,0.2-0.5,0-1.1,0.4c-0.1,0.1,0.1,0.4,0,0.6l-0.2-0.2l0.1,0.4l-0.4-0.1l-0.1,0.2
						c0.1,0,0.2,0,0.3,0c-0.1,0.3-0.7,0.4-0.8,0.3l-0.3,0.7c-0.1-0.1,0-0.2,0-0.3c-0.1,0.5-0.3-0.2-0.3,0.3c0.1,0,0.1,0.2,0.1,0.2
						c-0.3,0-0.6,0.2-0.7,0.5l-0.1-0.2c-0.4,0.3-0.8,0.8-1.4,1.2c0.2-0.1,0.4,0.3,0.3,0.4l-0.3-0.2c0,0.2,0.2,0,0.2,0.3
						c-0.2,0.1-0.3-0.2-0.3-0.4l-0.2,0.3c-0.1-0.1,0-0.2-0.1-0.3c0,0.2-0.6,0-0.5,0.4l-0.1-0.1c-0.5,0.4-0.7,0.6-1.1,0.9
						c0.2,0.2-0.1,0.3-0.1,0.6c-0.4,0.2-0.9,0.2-1.2,0.5c-0.2,0.3,0.1,0.3,0,0.5c-0.2-0.2-0.5,0.1-0.5-0.2c-0.4,0.4-0.6,0.5-1,1.1
						c0.1,0,0.2,0,0.2,0.1c-0.1,0.1-0.3,0.1-0.4,0l0,0c-0.4,0.8-1.9,0.6-2.1,1.4l0,0l-0.3,0.6c-0.3,0.2,0-0.3-0.3-0.2
						c-0.3,0.8-0.9,0.7-1.2,1.3c-0.8-0.3-1.2,1-2,1l0.1,0.1c0,0.2-0.2,0-0.3,0.1c0.1,0.1,0.2,0,0.2,0.2c-0.9,1-2.3,1.3-3.5,1.8
						c-0.4,0.2,0.2,0.9-0.5,0.8l0-0.4c-0.1,0.1-0.2,0.2-0.3,0.3l-0.2,0.1c0,0-0.2,0.1-0.3,0.1c-0.4,0.2-0.8,0.3-1.4,0.5
						c-1.1,0.2-2.3,0.4-3.2,0.7c-0.1-0.1-0.3-0.1,0-0.2c-0.6,0-1.1,0-1.4,0.1c-0.3,0.1-0.3,0.2,0,0.3c-0.1,0-0.2,0-0.3,0
						c-0.2,0-0.6-0.1-0.8-0.1c-0.2,0,0.2,0.1,0.5,0.2c0.3,0.1,0.4,0.2,0.2,0.2c-0.1,0-0.2-0.1-0.3-0.1c0.4,0.1,0.4,0.4,0.9,0.3
						c0.2,0.3,1.1,0.6,1.2,0.8c0.8,0.1,0.5,0.5,1.3,0.5c-0.7,0.1,0.2,0.6,0.8,0.7c-0.3,0,0.1,0.2-0.3,0.2c0.4,0.2,0.9,0.3,1,0.2
						c0,0.3,0.6,0.4,1,0.5c0.4,0.1,0.7,0.1,0.8,0.5c0.2,0,0.4,0,0.6,0.1c0.2,0,0.2,0,0.3,0c0.2,0,0.4,0,0.6,0c0.4,0,0.8,0,1.2,0
						c-0.1,0.4-0.8-0.1-0.9,0.4c0.8,0,1.2-0.4,1.9-0.1c0.2,0.1-0.1,0.2-0.2,0.2c0.7-0.1,1.4,0.2,2,0c0,0-0.1,0.1-0.1,0.1
						c0.1,0,0.3,0.1,0.3-0.1l-0.1,0c-0.2-0.3,0.5-0.6,0.6-0.7c-0.2,0.6,0.6,0.2,0.2,0.9c0.1,0,0.2-0.1,0.2-0.3c0.1,0,0.2,0.1,0,0.3
						c0.4-0.1,0.3-0.3,0.7-0.3c0,0.1-0.1,0.1-0.1,0.2c0.2-0.2,0.4-0.4,0.7-0.3c0,0.1,0,0.1-0.1,0.1c0.6,0,1-0.5,1.6-0.3
						c-0.2,0.4,0.2,0.1,0.2,0.5l0.3-0.1l-0.1-0.2c0.3,0,0.6-0.3,0.8-0.1l-0.2,0.1l0.5-0.1l-0.3-0.1c0.3-0.2,0-0.5,0.4-0.4
						c-0.1,0,0.3,0,0.4,0.2l0,0c0.1-0.1,0.3-0.2,0.5-0.1c0.1,0.1,0,0.4,0,0.5c0.1-0.3,0.7-0.1,0.9-0.4c-0.1,0.1-0.1,0.3,0,0.3
						l0.1-0.3c0.1,0.1,0.2,0.1,0.1,0.3c0.4,0-0.1-0.5,0.4-0.3c0,0,0,0.1-0.1,0.1c0.5,0.1,0.9-0.2,1.4,0c0.1,0.4-0.4,0.1-0.2,0.4
						c0.6-0.1,1.3-0.5,2-0.4l-0.1,0c0.1-0.5,0.5,0.3,0.8,0c-0.1,0-0.1,0.3-0.1,0.2c0.4,0.1,0.9-0.2,1.5-0.4l-0.1,0.1
						c0.3,0.1,0.7,0,1,0.1c0.1-0.1,0.2-0.1,0.1-0.3c0.9,0.7,1.5-0.6,2.4-0.1c-0.1,0-0.2,0.2-0.1,0.1l0.6-0.2
						c-0.1-0.2-0.1-0.1-0.3-0.3c0.1-0.1,0.2-0.3,0.4-0.3c-0.3,0.2,0.1,0.4,0.2,0.5c0-0.1,0-0.2,0-0.2c0.4,0.3,0-0.5,0.5-0.3l0,0.1
						c0.2-0.1,0.3-0.3,0.5-0.3c0.1,0.2-0.2,0.2-0.1,0.4c0.3-0.1,0.4-0.6,0.7-0.4c-0.1,0.1-0.2,0.1-0.3,0.2c0.3,0.3,0.3,0.2,0.5,0.2
						l0,0l0.5,0l-0.1-0.1c0.1-0.8,0.6-0.3,0.9-0.8c-0.3,0.5,0,0.3,0,0.6c0.1,0,0.3,0.1,0.3,0.2c0.1-0.3,0.4,0.1,0.6-0.3
						c0,0.1,0.2-0.1,0.2,0.2c0.2-0.2-0.1-0.1-0.1-0.3c0.3-0.4,1.1,0.1,1.5-0.6c0.4-0.4,0.4-0.7,0.7-1c0.2,0.1,0,0.4,0,0.4
						c0.3,0,0.5-0.1,0.6-0.3c0,0.1,0.1,0.1,0.2,0.2c0.2-0.1,0-0.4,0.3-0.4c0,0.1,0,0.3,0,0.4c0.2-0.2,0.3-0.5,0.5-0.6
						c0.1,0.1,0,0.3,0,0.4c0.2-0.2,0.6-0.5,0.5-0.7l-0.2,0c0.1-0.1,0.2,0.2,0.1,0.3c-0.1,0.3-0.3,0.1-0.4,0l0.1-0.1
						c-0.4-0.4-0.6,0.4-0.9,0.5l-0.1-0.4l-0.2,0.5c-0.1-0.1-0.3-0.3-0.1-0.4c-0.3-0.1-0.1,0.2-0.4,0.1c0,0,0,0,0-0.1l-0.2,0.2
						c0-0.1-0.2-0.3,0-0.3c-0.5-0.1-0.5,0.6-0.8,0.3l0,0c-0.5,0.3,0.1,0.3-0.2,0.8l-0.5-0.6l0,0.3c-0.1,0-0.2,0-0.2-0.1
						c-0.1,0.3,0.1,0.1,0,0.3c-0.4-0.2-0.7,0.4-0.9-0.1c0,0.3,0.3,0.1,0.1,0.3c-0.2-0.5-0.3,0.2-0.6,0c0-0.3,0.3-0.2,0-0.4
						c0,0.5-0.5,0-0.7,0.2c0.1,0.4-0.4,0.3-0.8,0.5c0-0.1-0.7-0.1-1.1-0.1l0-0.1c0,0.4-0.4,0.4-0.6,0.5c0-0.2,0-0.3,0.1-0.4l-0.2,0
						c0,0.1-0.1,0.2-0.3,0.3l0-0.3c-0.3,0.1-0.6,0.4-1,0.3c0,0.3,0.4,0.7,0,0.9c0-0.1-0.1-0.4,0-0.4c0,0-0.1,0.1-0.2,0.1l0.1-0.3
						c-0.2-0.1-0.1,0.2-0.2,0.2c0-0.2-0.1-0.1-0.1-0.3c0,0,0.1,0.1,0.2,0c-0.2,0-0.4-0.1-0.5-0.2c0,0.1,0,0.3-0.1,0.3
						c-0.3,0.1-0.1-0.2-0.3-0.3c-0.1,0.1-0.3,0-0.3,0.3c-0.1,0-0.1-0.1-0.2-0.2c-0.2,0.1-0.8,0.1-0.6,0.4l0,0l0,0l0,0l0,0
						c-0.5,0.3-1.2-0.1-1.7,0.1l0-0.1c-0.3,0.1-0.7,0.1-1,0.3c-0.1,0-0.2-0.2-0.2-0.3c-0.2,0.1-0.3,0.2-0.6,0
						c0.2-0.2-0.1-0.1,0.3-0.1c-0.3-0.1-0.4-0.2-0.8,0c0.1-0.3-0.3-0.3-0.4-0.2l0.2,0.2c-0.2,0-0.3,0-0.5,0l0.1-0.3
						c-0.7-0.4-1.2,0.7-1.7,0c-0.2,0.2,0.4,0.2,0.2,0.4c-0.3,0-0.6-0.5-0.7-0.5c-0.4-0.2-0.4,0.5-0.8,0.4c0.1,0.1,0.1,0.4-0.2,0.5
						c-0.3,0-0.4-0.5-0.2-0.6c0.1,0,0.1,0,0.1,0.1c0.1,0,0.2-0.1,0.1-0.2l0,0.1c-0.2-0.1-0.6-0.1-0.5-0.3c-0.2,0.1-0.1,0.2,0.1,0.3
						c-0.4-0.2-0.6,0-1-0.1c0.1,0.1,0.1,0.2,0.1,0.2c-0.6-0.2-0.3,0.2-0.7,0.3c-0.2-0.2,0.1-0.4-0.3-0.3c-0.2-0.1,0-0.3,0.1-0.4
						c-0.4,0.2-0.7-0.2-0.9-0.2l0.2-0.1c-0.1,0.1-0.2,0-0.3,0l0.1,0.2c-0.1,0-0.2-0.1-0.2-0.1c-0.1,0.2,0.1,0.4-0.2,0.6
						c-0.1-0.1-0.5,0.1-0.5-0.2c0.5,0.1,0-0.3,0.4-0.3c-0.1,0-0.2,0-0.3,0c0,0,0-0.1,0.1-0.1c-0.4-0.3-0.2,0.3-0.7,0.3
						c0.1-0.2-0.1-0.3-0.2-0.3c0.2,0,0.1,0.3-0.1,0.4c-0.3-0.2-0.3,0.1-0.5,0.1l0.2,0.1c-0.1,0.2-0.2,0.1-0.4,0.2
						c0-0.1,0.2-0.1,0.1-0.1c-0.3,0.3-0.5-0.4-0.8-0.2c-0.1-0.1,0-0.3-0.1-0.4c-0.4,0.2-0.4-0.3-0.7-0.2c0.1,0.3,0.1,0.2-0.2,0.4
						l0.6-0.1l-0.4,0.3c0.2,0,0.4-0.1,0.5,0c-0.2,0.2-0.2,0.1-0.1,0.3c-0.2-0.4-0.5,0.1-0.8-0.2l0.1-0.6c-0.4-0.3-0.8,0.2-1.4-0.1
						L49,110c-0.1,0.2-0.4-0.1-0.6,0c0.1-0.2,0-0.3-0.1-0.4c0,0.1-0.1,0-0.2,0c-0.1,0-0.1,0.1-0.2,0.2c0,0,0-0.3,0-0.3
						c-0.1-0.1-0.7,0.4-1,0.2c0.3-0.1,0.4-0.2,0.7-0.3c-0.1,0-0.1-0.1-0.2,0c0.1-0.1-0.6,0.1-0.4-0.1c-0.2,0-0.5,0.1-0.6,0.1
						c0.1,0,0.2,0,0.2,0c-0.2,0-0.4,0-0.7,0.1c0.4-0.2,0.2-0.3-0.1-0.4c-0.2-0.1-0.5-0.2,0.1-0.3c-0.1,0-0.2-0.1-0.3-0.1l-0.1,0
						l-0.1,0l0,0c0,0,0.1,0,0.2-0.1c0.1,0,0.3,0,0.2,0c0.6,0-0.9-0.2-0.5-0.2c0,0,0.1,0,0.2,0c0.7,0.1,0.4,0.1,0.5,0.1
						c0,0,0,0,0.1,0c0,0,0,0,0.1,0c0.7,0.1,0.7,0.1,0.7,0.1c0,0-0.1-0.1,0.3,0l0,0c0.2,0,0.2,0,0.1-0.1c-0.1-0.1-0.1-0.2,0.1-0.2
						c0,0,0.1,0,0.1,0.1c-0.2-0.2,0.1-0.5,0.3-0.7c0,0.3-0.1,0.2,0.1,0.4c0.1-0.1-0.3-0.3,0-0.5c0.2,0.1,0.4,0.1,0.6,0.3l-0.3,0.2
						c0.3,0.3,0.4-0.2,0.6-0.2l0,0.2c0.5-0.3,0.3-0.6,0.8-0.9l-0.1-0.1c0.1-0.5,0.3,0.1,0.5-0.3l0.3,0.3c0.1-0.2,0.4-0.7,0.7-0.9
						c0,0.4-0.3,0.7-0.4,1c0.2-0.1,0.6-0.4,0.5-0.6c0,0.1-0.1,0.2-0.2,0.2c0-0.4,0.2-0.7,0.6-0.9c0.4,0.7,1-0.4,1.5-0.1
						c0.4-0.6,1.2-0.7,1.8-1.3c-0.6-0.3,0.2-0.2-0.2-0.6c0.1-0.1,0.2-0.2,0.2-0.2l0.7-0.1c0.2,0.1-0.1,0.2,0,0.3
						c0.4-0.2,0.3,0.1,0.6,0c-0.2-0.1-0.1-0.3,0.1-0.4l-0.4,0c0.2-0.6,0.7,0.1,0.9-0.5l0,0.3c0.2-0.3,0.8-0.7,0.7-1.2
						c0.1,0,0.2,0.1,0.2,0.2c0.6-0.4,0.9-1.4,1.5-1.5l0.1,0.2c0.1-0.1,0-0.4,0.2-0.3c0,0.1,0.1,0.1,0.1,0.1c0-0.1,0.1-0.4,0.3-0.4
						l0,0.2c0.6-0.2,0.6-0.9,1-1.4c0.3,0.4,0.8,0.2,1,0.1l0,0.1c0.7-0.4,0.9-1.1,1.4-1.6c0.7,0.1,1.4-0.8,2.2-1.1
						c-0.1,0-0.2-0.3-0.1-0.4c0.2,0,0.2-0.6,0.4-0.2l-0.1,0c0.4,0.2,0.6-0.1,0.8-0.3l-0.3-0.4c1.1,0,1.2-1.6,2-1.5
						c0-0.2,0.2-0.4,0.2-0.6l0.2,0.2c0.4-0.4,0.6-0.5,0.9-1.1l0.1,0.2c0.2-0.3-0.4-0.8-0.2-1.1l0.4,0.2c0.3-0.5,1-0.8,1-1.5
						c0,0,0.1,0.1,0.1,0.2c0.2-0.2,0.8-0.8,0.3-1c0.3,0.2,0.4-0.5,0.4-0.8l0.2,0.2c-0.2-0.4-0.2-0.5-0.1-0.8
						c0.1-0.1,0.2,0.1,0.1,0.1c0.3-0.2-0.1-0.3,0.2-0.6l0.1,0.2c0.2-0.2,0.1-0.3,0-0.5c0-0.2,0.4-0.4,0.6-0.3
						c-0.1-0.1-0.2-0.4,0-0.5c0.1,0,0.1,0.1,0.1,0.2c0.4-0.3,0.2-0.8,0.6-0.9c0.1,0,0.1,0.1,0.2,0c-0.2,0.3-0.4,0.6-0.4,0.5
						c0.2,0.1,0.4-0.1,0.6,0.3c0-0.3-0.1-0.9,0.2-1.1c0,0,0.1,0,0.1,0l0,0c0.1,0,0.1-0.1,0.1-0.2c0.1-0.1,0.2-0.1,0.2-0.2
						c0.2,0.1,0.3-0.2,0.4-0.4c-0.2-0.2-0.1-0.3-0.4-0.3c0,0,0,0,0,0.1c0,0,0,0.1,0,0.1l0,0c-0.1,0.1-0.1,0.2-0.2,0.3
						c0-0.2-0.1-0.4,0.2-0.4c-0.1-0.2-0.2-0.4-0.2-0.4c0.4,0,0.9-0.2,1.1-0.1c0.2-0.5,0.6-1,0.4-1.6c0-0.2,0.2,0,0.3,0
						c0,0.1-0.1,0.2,0,0.3c0.1-0.3,0.5-0.7,0.2-1c0.3-0.2,0.1,0.4,0.4-0.1l0,0.1c1-0.4,0.2-1.8,1.5-2.2c-0.1,0-0.1,0-0.2,0
						c1-0.7,1.3-2.2,2.5-2.7c0.3-0.2,0.1-0.4,0.1-0.6l0.3,0.1l0-0.5c0.1-0.6,1.1-0.2,1.2-1l-0.2-0.1c0.2-0.1,0.4-0.6,0.5-0.4
						c0,0-0.1-0.2,0-0.2L82,74l0.2-0.6c0.4-0.2,0.4,0.5,0.9,0c0.1-0.2,0.1-0.8,0-0.8c-0.1,0.1-0.2,0.1-0.4,0l0.1-0.2
						c-0.3-0.3-0.6-0.8-1.2-0.6l0,0.5l-0.2-0.1l0.2-0.2c-0.3,0-0.2,0.2-0.2,0.4c-0.1-0.1-0.2-0.1-0.3-0.1l0.1,0.6
						c-0.2-0.1-0.2-0.4-0.4-0.2c0,0.3,0.4,0.1,0.3,0.5c-0.3,0-0.4-0.2-0.4,0.1c-0.1-0.1-0.1-0.1-0.1-0.2c0,0.2-0.3,0.4-0.2,0.6
						c-0.3,0-0.4,0.5-0.7,0.2c0,0.1,0,0.5-0.1,0.6c-0.2-0.6-0.4,0.5-0.8,0c0.2,0.5-0.4,0.8-0.5,1.3c0,0,0-0.1,0-0.1
						c-0.2,0.2-0.3,0.1-0.5,0.2c0.3,0.3,0.1,0.6,0.2,0.9c-0.5,0-0.2-0.4-0.6-0.6c0.3,0.2-0.1,0.6,0.2,0.7c-0.3,0-0.2,0.1-0.5,0
						c0.4,0.3-0.1,0.2,0.1,0.5c-0.4,0.1-0.4-0.2-0.5,0.1C76.4,77.4,76.5,77.1,76.5,77.1z M72.2,84.2L72.2,84.2
						c0-0.1,0.1-0.1,0.1-0.2C72.2,84,72.2,84.1,72.2,84.2 M71.8,84.7c0.1-0.1,0.1-0.1,0.2-0.2c0.1,0,0.2,0.1,0.1,0.2
						C72.1,84.6,71.9,84.7,71.8,84.7 M74.2,84.7c0,0.1-0.1,0.1-0.2,0.1C74.1,84.7,74.1,84.7,74.2,84.7l-0.1-0.1
						C74.2,84.6,74.2,84.6,74.2,84.7 M75,122.3c0.1,0.5,0.4,0.1,0.7,0.2c0.3,0.6-0.2,0.4-0.3,0.6c0.2,0.3,0.6,0.5,0.7,0.8c0,0-0.1,0.1-0.1,0.1
						c0.4,0.3,0.5,1.2,1,1.5c0,0,0,0.1-0.1,0.1c0.1-0.1,0.3-0.2,0.4-0.3c0.1,0.2,0.4,0.3,0.2,0.5c-0.1-0.1-0.1-0.1-0.2-0.1l0.2,0.2
						c-0.2,0.3-0.3-0.3-0.5-0.1c0.3,0.4,0.8,0.8,0.9,1.1c-0.3,0.2-0.5-0.7-0.5-0.1l-0.1-0.6c-0.3,0.6-0.1-0.3-0.5,0.3
						c0.2,0.7,0.5,0.7,0.8,1.4c0.2,0.1,0.2-0.2,0.5-0.1c0.8,0.8-0.3,1.2,0.5,1.6c0.3,0.1,0.7-0.1,0.8,0.5l-0.4,0.1
						c0.4,0.6,0.7,0,0.9,0.8c-0.2,0-0.4-0.4-0.4-0.3c0,0.6,0.4,0.2,0.6,0.5l-0.2,0.3c0.5,0.6,1.2,1.1,1.9,1.7c-0.1,0-0.3,0-0.2,0.2
						c0.4,0.4,0.8,0.8,1.4,1.3c0.3,0.2,0.6,0.5,1.1,0.6c0.4,0.2,0.8,0.2,1.2,0.3c0,0,0.5-0.3,0.5-0.3c0.1,0,0.2,0.1,0.1,0.2
						c0.5,0,0-0.2,0.2-0.3c0.2-0.1,0.3,0.1,0.2,0.2c0.7-0.4,1.9-0.9,2.7-0.7l-0.1,0.1c0.6,0,0.5-0.7,1.1-0.6l-0.1,0.1
						c1.3-0.2,2.5-0.8,3.6-0.7c0-0.5,1.3-0.2,1.1-0.8c0.8,0,0.6,0.2,1.7,0c0.3-0.1,0.2-0.5,0.5-0.7l0.1,0.3l0.3-0.5l0.4,0.2l0.3-0.2
						c-0.1,0-0.3,0-0.3-0.1c0.4-0.3,1.2-0.4,1.3-0.3c0,0,0.2-0.2,0.5-0.4c0.2-0.2,0.4-0.4,0.4-0.4c0,0.1-0.1,0.3-0.2,0.4
						c0.4-0.6,0.3,0.2,0.6-0.4c-0.1,0-0.1-0.2-0.1-0.2c0.4,0,0.9-0.4,1.2-0.8l0.1,0.2c0.8-0.5,1.4-1.3,2.1-2.1
						c-0.3,0.2-0.5-0.1-0.4-0.4l0.3,0.1c0-0.3-0.3,0.1-0.2-0.3c0.3-0.2,0.4,0.1,0.4,0.3l0.2-0.4c0.1,0,0.1,0.2,0.1,0.3
						c0-0.3,0.8-0.4,0.7-0.9l0.1,0c0.2-0.2,0.3-0.4,0.4-0.6l0.1-0.1l0,0l0,0c0-0.1,0-0.1,0-0.2c-0.1-0.4,0-0.3,0-0.8
						c0.1-0.1,0.2,0.2,0.2,0c0,0,0,0,0,0c0.1-0.5,0.1-0.7,0.2-1.2c-0.1,0.7,0,0.4-0.1,1.1c0-0.1,0-0.2,0-0.2c0-0.1,0,0,0,0
						c0,0,0.1-0.1,0.2-0.2c0.1-0.3,0.1-0.5,0.1-0.7c0,0,0,0.5-0.1,0.8l0,0c0.2-0.2,0.1,0.6,0,1c-0.1,0.4-0.2,0.5,0.1,0.6l0,0
						c0,0,0,0,0.1,0c0,0,0.1,0.2,0.2,0.3c0.1,0.2,0.2,0.5,0.2,0.5c0.1,0.5-0.3-0.2-0.3,0.1c0.7,1,0.4,1.7,0.9,2.5
						c-0.5,0.9,1,2.3,1.1,3.4l0.1-0.1c0.3,0.1,0.1,0.3,0.1,0.5c0.1-0.1,0-0.3,0.2-0.2c1.3,1.7,2.6,3.7,4.6,4.9
						c0.8,0.4,0.8-0.6,1.6,0.2l-0.4,0.2c0.9,0.1,1.7,0.3,2.6,0.5l0.7,0.1c0.2,0,0.6,0,0.9,0c0.7,0,1.2-0.2,1.7-0.4
						c-0.1,0.1,0,0.2-0.2,0.2c0.3,0.1,0.8-0.1,1.2-0.2c0.2-0.1,0.3-0.2,0.4-0.2c0-0.1-0.2-0.3-0.2-0.3c-0.1-0.3,0.2,0,0.2-0.1
						c0-0.5-0.7-1.3-0.6-1.5c0,0,0.1,0.1,0.2,0.2c-0.3-0.3-0.6-1.4-0.7-1.1c0-0.2-0.1-0.4-0.2-0.6c-0.1-0.1-0.1-0.2-0.1-0.3
						c-0.1-0.2-0.2-0.4-0.2-0.6c-0.4-0.2-0.1-0.9-0.5-0.9c0.4-0.1,0.2-1-0.1-1.3c0.2,0.1,0.1-0.3,0.3-0.2c-0.1-0.4-0.2-0.7-0.4-0.6
						c0.4-0.7-0.6-1.3,0.1-1.8c-0.3-1.1-0.5-2.2-0.6-3.2c0.4,0.1,0,1.1,0.5,1.1c-0.2-1-0.5-1.5-0.4-2.5c0.1-0.2,0.2,0.2,0.3,0.2
						c-0.1-1,0.2-1.9,0.1-2.8c0,0,0.1,0.1,0.1,0.2c0-0.2,0.1-0.4-0.1-0.4l0,0.2c-0.3,0.2-0.5-0.8-0.7-0.8c0.5,0.4,0.3-0.8,0.9-0.3
						c0-0.1-0.1-0.3-0.2-0.3c0.1-0.2,0.2-0.2,0.3,0c0-0.6-0.3-0.4-0.1-1c0.1,0,0.1,0.1,0.2,0.2c-0.1-0.3-0.3-0.6-0.1-1.1
						c0.1,0,0.1,0,0.1,0.1c0.1-0.8-0.2-1.5,0.2-2.3c0.4,0.4,0.2-0.3,0.6-0.2l0-0.5l-0.2,0.1c0.1-0.4-0.1-0.8,0.1-1.2l0.1,0.3
						l0.1-0.8l-0.2,0.4c-0.1-0.5-0.5-0.1-0.2-0.6c0,0.1,0.1-0.4,0.4-0.6l0,0c-0.1-0.2-0.1-0.5,0-0.8c0.1,0,0.4,0.2,0.5,0.1
						c-0.3-0.3,0.2-1-0.1-1.3c0.1,0.1,0.2,0.2,0.3,0.1l-0.2-0.2c0.1-0.2,0.2-0.2,0.3-0.1c0.2-0.6-0.5,0.1-0.1-0.6c0,0.1,0,0,0.1,0.2
						c0.3-0.7,0.2-1.4,0.5-2c0.4-0.1,0,0.6,0.3,0.4c0.2-0.9,0-2,0.3-2.9l-0.1,0.2c-0.5-0.2,0.4-0.6,0.3-1.1c0,0.1,0.3,0.2,0.2,0.2
						c0.2-0.6,0.1-1.3,0.1-2.3l0.1,0.1c0.2-0.3,0.2-1,0.4-1.3c-0.1-0.1-0.1-0.4-0.3-0.3c1-1.1-0.1-2.4,0.6-3.4
						c0,0.1,0.1,0.3,0.1,0.2l-0.1-0.9c-0.2,0.1-0.1,0.1-0.3,0.3c-0.1-0.1-0.2-0.4-0.2-0.6c0.1,0.4,0.4,0,0.5-0.2c-0.1,0-0.1,0-0.2,0
						c0.4-0.5-0.5-0.1-0.2-0.7l0.1,0c-0.1-0.2-0.2-0.5-0.2-0.7c0.3-0.1,0.1,0.3,0.3,0.3c0-0.4-0.5-0.7-0.3-1.1
						c0.1,0.2,0.1,0.4,0.2,0.5c0.3-0.4,0.2-0.4,0.3-0.7l0,0l0.1-0.7l-0.1,0.2c-0.7-0.4-0.2-1-0.7-1.5c0.5,0.6,0.3,0.1,0.6,0.1
						c0.1-0.2,0.1-0.4,0.2-0.4c-0.3-0.3,0.1-0.5-0.3-0.9c0.1,0-0.1-0.3,0.2-0.3c-0.1-0.4-0.1,0.1-0.3,0.1c-0.4-0.5,0.1-1.5-0.6-2.3
						c-0.4-0.7-0.7-0.7-1.1-1.3c0.1-0.3,0.4,0.1,0.4,0.1c0-0.4-0.1-0.7-0.4-1c0.1,0,0.1-0.1,0.2-0.2c-0.1-0.3-0.4,0-0.4-0.4
						c0.1,0,0.3,0,0.5,0.1c-0.2-0.3-0.5-0.5-0.8-0.8c0.1-0.2,0.3,0.1,0.5,0.1c-0.2-0.3-0.6-0.9-0.9-0.8l0,0.3
						c-0.1-0.1,0.2-0.2,0.3-0.1c0.3,0.2,0.1,0.5,0.1,0.5l-0.2-0.2c-0.4,0.5,0.5,0.8,0.7,1.3l-0.5,0l0.5,0.3
						c-0.1,0.1-0.2,0.3-0.4,0.1c-0.1,0.4,0.3,0.2,0.1,0.6c0,0,0,0-0.1,0l0.2,0.3c-0.1,0-0.3,0.2-0.3-0.1c0,0.6,0.6,0.8,0.4,1.2l0,0
						c0.4,0.8,0.3,0,0.8,0.5l-0.6,0.6l0.3,0c0,0.1,0,0.3-0.1,0.3c0.3,0.3,0.1-0.1,0.4,0.1c-0.2,0.5,0.4,1.1-0.1,1.3
						c0.3,0.1,0.1-0.4,0.3,0c-0.5,0.2,0.2,0.5,0,0.9c-0.3-0.1-0.2-0.5-0.4,0c0.5,0.2,0,0.8,0.1,1.1c0.4,0,0.2,0.7,0.4,1.2
						c-0.1,0-0.2,1-0.3,1.5l-0.1,0c0.4,0.1,0.3,0.6,0.4,1c-0.2,0-0.3-0.1-0.4-0.3l0,0.4c0.1,0.1,0.2,0.2,0.2,0.4l-0.3-0.1
						c0,0.5,0.3,1,0,1.6c0.3,0.1,0.8-0.4,0.9,0.2c-0.1,0-0.4,0-0.4-0.2c0,0.1,0.1,0.2,0,0.3l-0.2-0.3c-0.1,0.3,0.2,0.2,0.1,0.4
						c-0.2,0-0.2,0.2-0.3,0.1c0-0.1,0.1-0.2,0-0.3c-0.1,0.2-0.2,0.5-0.4,0.6c0.1,0,0.3,0,0.3,0.2c0,0.5-0.3,0.1-0.4,0.4
						c0.1,0.1-0.1,0.4,0.2,0.5c0,0.1-0.2,0.1-0.2,0.2c0.1,0.3-0.1,1.1,0.2,0.9l0-0.1c0,0,0,0,0,0l0,0l0,0c0.2,0.9-0.5,1.6-0.5,2.5
						l-0.1,0c0,0.5-0.2,1.1,0,1.4c0,0.1-0.3,0.3-0.4,0.2c0,0.4,0.1,0.4-0.2,0.9c-0.1-0.4-0.2,0.1,0-0.4c-0.2,0.4-0.4,0.5-0.2,1.1
						c-0.2-0.2-0.4,0.3-0.4,0.5l0.3-0.3c0,0.3-0.1,0.5-0.2,0.7l-0.3-0.2c-0.6,0.9,0.2,1.9-0.6,2.5c0.2,0.3,0.3-0.5,0.5-0.2
						c-0.2,0.4-0.7,0.8-0.8,0.9c-0.3,0.6,0.3,0.7,0,1.3c0.1-0.1,0.5-0.1,0.5,0.4c-0.2,0.4-0.6,0.4-0.6,0.1c0-0.1,0.1-0.2,0.1-0.1
						c0-0.2,0-0.4-0.2-0.2l0.1,0.1c-0.2,0.2-0.3,0.8-0.5,0.6c0,0.4,0.2,0.2,0.3,0c-0.3,0.5-0.2,0.9-0.5,1.5c0.1-0.1,0.2-0.1,0.2,0
						c-0.3,0.8,0.1,0.4,0.1,1c-0.2,0.3-0.4-0.2-0.4,0.4c-0.2,0.3-0.3,0-0.4-0.2c0.1,0.6-0.4,1-0.5,1.3l0-0.3c0,0.2,0,0.3,0,0.5
						l0.3-0.1c-0.1,0.2-0.1,0.3-0.2,0.3c0.1,0.2,0.4-0.1,0.6,0.3c-0.2,0.2,0,0.7-0.3,0.7c0.2-0.7-0.3,0-0.3-0.6c0,0.1,0,0.3-0.1,0.4
						c0,0-0.1,0-0.1-0.1c-0.4,0.6,0.3,0.4,0.2,1.1c-0.2-0.1-0.4,0.1-0.3,0.2c0-0.3,0.3-0.1,0.4,0.2c-0.2,0.4,0,0.5,0,0.7l0.1-0.3
						c0.2,0.1,0.1,0.3,0.1,0.7c-0.1,0-0.1-0.3-0.1-0.2c0.3,0.4-0.4,0.8-0.3,1.3c-0.1,0.2-0.3,0-0.4,0.2c0.2,0.6-0.3,0.6-0.1,1.2
						c0.3-0.2,0.2-0.2,0.4,0.2l-0.1-1l0.3,0.6c0-0.3-0.1-0.6,0-0.8c0.2,0.3,0.1,0.3,0.3,0.2c-0.4,0.4,0.1,0.8-0.1,1.2l-0.6,0
						c-0.3,0.7,0.3,1.2,0.1,2.1l0.1-0.3c0.2,0.1,0,0.6,0.1,0.8c-0.2,0-0.3,0.2-0.4,0.3c0.1,0,0,0.7,0.4,0.7l-0.2,0.4
						c0,0.7,0.6,0.8,0.7,1.5c-0.2-0.2-0.3,0.2-0.6-0.3c0,0.2,0,0.5,0.2,0.4c-0.1,0.2,0.4,0.6,0.2,0.8c0.1,0.1,0.3,0.1,0.3,0.3
						c0,0-0.1,0-0.1,0c0.1,0,0.2,0.4,0.4,0.1c-0.5,0.8,0.5,1.9,0.2,2.7c0.1,0.3,0.2,0.4,0.3,0.6c0.1,0.2,0.2,0.3,0.2,0.5
						c-0.1,0-0.1,0-0.1-0.1c-0.1,0.2,0.8,0.4,0.8,0.9c-0.1,0-0.2-0.1-0.3-0.1c0,0,0,0-0.1-0.1c-0.1-0.1-0.1-0.2-0.1-0.1
						c-0.2-0.1-0.3-0.1-0.3-0.1c-0.1,0-0.1,0-0.1,0.1c0,0.1-0.2,0.2-0.4,0l0,0c-0.3-0.2-0.2,0.3-0.7,0.2c0,0,0-0.1,0-0.1
						c-0.4,0.3-1.1,0.3-1.7,0.3c0.2-0.2,0.3-0.1,0.2-0.3c-0.2,0,0,0.4-0.5,0.4c-0.1-0.2-0.4-0.4-0.4-0.7l0.4,0.1
						c-0.1-0.4-0.5-0.2-0.7-0.3l0.1-0.1c-0.6-0.2-0.8,0.1-1.5-0.3l0,0.1c-0.6,0.1-0.2-0.4-0.7-0.4l0.1-0.4c-0.3-0.1-1-0.3-1.4-0.6
						c0.4,0,0.9,0.2,1.3,0.3c-0.2-0.1-0.7-0.5-0.9-0.5c0.1,0,0.3,0.1,0.3,0.2c-0.5,0-0.9-0.2-1.3-0.6c0.6-0.4-0.8-1.2-0.5-1.9
						c-0.7-0.6-0.8-1.7-1.2-2.6c-0.4,0.6-0.1-0.3-0.7,0c-0.1-0.2-0.2-0.3-0.1-0.4c0,0,0-0.2,0-0.4c0-0.2,0.1-0.4,0.1-0.4
						c0.1-0.2,0.2,0.2,0.3,0.1c-0.1-0.6,0.2-0.3,0.2-0.7c-0.2,0.1-0.4-0.1-0.4-0.4l-0.2,0.5c-0.5-0.7,0.3-0.8-0.2-1.5l0.2,0.2
						c0-0.1-0.1-0.2-0.1-0.4c0-0.1,0-0.2-0.1-0.3c0-0.1-0.1-0.3-0.1-0.4c-0.1-0.3-0.2-0.6-0.3-0.9c-0.1-0.3-0.2-0.5-0.4-0.5
						c0-0.2,0.2-0.5,0.3-0.2c-0.1-1-0.3-1.9-0.5-2.7c-0.2-0.8-0.3-1.4-0.3-2.5l0.1-0.3c-0.1-0.2-0.2,0.3-0.2-0.6
						c0-0.2,0.1-0.4,0.1-0.6c0,0-0.1,0-0.2-0.1c0,0-0.1-0.1-0.1-0.2l0-0.2c0,0,0-0.1,0-0.1c0,0,0-0.1,0.1-0.3c0-0.1,0.1-0.1,0.1-0.1
						c0-0.1,0-0.2,0-0.3l0-0.1c0-0.1,0-0.1,0-0.2c0-0.1,0-0.1-0.1-0.1c0,0,0,0.1-0.1,0c0,0-0.1,0-0.1,0c-0.1,0-0.1,0.1-0.2,0.2
						c-0.3,1.7-0.6,3.2-0.9,4.3c0-0.9-0.1-0.9-0.4-0.4c-0.1,0.2-0.2,0.6-0.4,0.9c-0.1,0.2-0.1,0.3-0.2,0.4c-0.1,0.1-0.1,0.2-0.1,0.3
						l0-0.2c-0.1,0.4-0.2,0.7-0.4,1.1c-0.1,0.4-0.2,0.6-0.4,0.8c-0.2,0.5-0.4,1-0.6,1.4c0,0.1-0.1,0.2-0.1,0.3l-0.1,0.2
						c0,0.1-0.1,0.2-0.1,0.3c-0.1,0.2-0.2,0.4-0.3,0.7c-0.7,0.2-1.6,1.4-2.6,1.9c0.2,0,0.2,0.3,0.1,0.4c-0.2,0.1-0.3,0.7-0.6,0.3
						l0.1,0c-0.4-0.2-0.7,0.2-1,0.4l0.2,0.5c-1.2-0.1-2.2,1.6-3,1.2c-0.2,0.2-0.4,0.3-0.6,0.6l-0.1-0.3c-0.7,0.2-1,0.3-1.7,0.6
						l0.1-0.2c-0.4,0.1-0.3,1-0.7,1.1l-0.3-0.4c-0.8,0.3-1.7,0.1-2.4,0.7c0-0.1,0-0.2,0.1-0.2c-0.4,0.1-1.6,0.1-1.3,0.6
						c-0.1-0.4-0.9,0.2-1.3,0.4l0-0.3c-0.3,0.4-0.3,0.5-0.8,0.7c-0.1,0-0.2-0.2,0-0.2c-0.4-0.1-0.3,0.3-0.8,0.3l0.2-0.2
						c-0.4,0-0.4,0.1-0.6,0.4c-0.3,0.2-0.7-0.1-0.7-0.3c-0.1,0.1-0.3,0.3-0.5,0.1c0-0.1,0.1-0.1,0.1-0.1c-0.3-0.4-0.9-0.3-1.1-0.8
						c0.1-0.1,0.1-0.1,0.1-0.2c0.4,0.4,0.7,0.7,0.6,0.7c0.2-0.2-0.1-0.5,0.4-0.6c-0.3,0-1.1-0.2-1.3-0.6c0,0,0-0.1,0-0.1l0.1,0
						c0-0.1-0.1-0.1-0.2-0.2c-0.1-0.1-0.1-0.2-0.2-0.3c0.1-0.2-0.2-0.5-0.4-0.7c-0.2,0.2-0.4-0.1-0.4,0.3c0,0,0.1,0,0.2,0.1
						c0,0,0.1,0.1,0.1,0.1l0,0c0.1,0.1,0.2,0.3,0.4,0.4c-0.2,0-0.4-0.1-0.5-0.4c-0.2,0-0.4,0-0.6,0c0.1-0.5-0.1-1.1,0.1-1.3
						c-0.5-0.5-1-1.3-1.7-1.4c-0.2-0.1,0-0.3,0-0.4c0.1,0.1,0.2,0.2,0.3,0.2c-0.3-0.3-0.6-1-1-0.9c-0.1-0.5,0.4,0.1,0-0.5l0.1,0
						c-0.1-1.5-1.9-1.6-1.7-3.4c0,0.1,0,0.2-0.1,0.2c-0.3-1.7-1.4-3.4-1.1-5.2c0-0.5-0.2-0.5-0.4-0.8l0.3-0.1l-0.4-0.5
						c-0.3-0.7,0.6-1.3,0.1-2.2l-0.2,0.1c0-0.3-0.1-1.1,0.1-1c0,0-0.2-0.1-0.1-0.2l0.2,0l-0.2-0.8c0.1-0.6,0.6,0.1,0.7-0.8
						c0-0.3-0.4-1-0.5-0.9c0,0.1-0.1,0.3-0.3,0.3l-0.1-0.3c-0.5-0.1-0.9-0.4-1.3,0.4l0.2,0.6l-0.2,0.2l0-0.5c-0.2,0.3-0.1,0.4,0,0.6
						c-0.1,0-0.2,0.1-0.3,0.2l0.4,0.6c-0.2,0.1-0.4-0.3-0.5,0.1c0.2,0.3,0.4-0.2,0.5,0.2c-0.2,0.3-0.4,0.2-0.2,0.5
						c-0.1,0-0.2,0-0.2-0.2c0.1,0.3,0.1,0.8,0.3,0.9c-0.3,0.3,0.1,0.9-0.3,0.9c0.1,0.1,0.4,0.5,0.4,0.7c-0.6-0.4,0,1-0.5,0.9
						c0.5,0.3,0.4,1.3,0.7,1.8c0,0-0.1-0.1-0.1-0.1c0,0.4-0.1,0.5-0.1,0.7c0.4,0,0.6,0.5,0.9,0.7c-0.3,0.5-0.5-0.1-0.8,0.1
						c0.3-0.1,0.5,0.7,0.7,0.5c-0.1,0.4,0,0.3-0.3,0.5c0.5-0.1,0.2,0.3,0.5,0.5c-0.1,0.5-0.4,0.2-0.1,0.7
						C75.3,122.7,75,122.3,75,122.3 M81.8,132.7L81.8,132.7c-0.1-0.1-0.1-0.1-0.2-0.2C81.6,132.5,81.7,132.6,81.8,132.7
						 M82.5,133.5c-0.1-0.1-0.2-0.2-0.3-0.3c0-0.1,0.1-0.1,0.2-0.1C82.3,133.1,82.4,133.3,82.5,133.5 M82.5,130.6
						c0.1,0.1,0.1,0.2,0.1,0.2c-0.1-0.1-0.1-0.1-0.2-0.2l0,0C82.4,130.6,82.5,130.6,82.5,130.6 M53.8,115.8c0.1,0.1,0.3-0.1,0.5-0.2c0.2,0.1-0.2,0.2-0.3,0.4c0.1,0,0.5-0.1,0.5,0c0,0-0.1,0.1-0.1,0.1
						c0.3-0.1,0.2,0.3,0.6,0.2c0,0,0,0-0.1,0.1c0.1-0.1,0.3-0.2,0.4-0.3c0,0.1,0.3,0,0.1,0.1c0,0-0.1,0-0.2,0l0.1,0
						c-0.3,0.2-0.2,0-0.4,0.1c0.2,0,0.5,0,0.5,0.2c-0.3,0.2-0.2-0.1-0.4,0.2l0-0.2c-0.4,0.4,0-0.1-0.4,0.3c0,0.2,0.3,0.1,0.3,0.3
						c0.2-0.1,0.2-0.2,0.4-0.2c0.5,0.1-0.6,0.7-0.1,0.6c0.2-0.1,0.6-0.3,0.5-0.1l-0.3,0.2c0.1,0.2,0.5-0.2,0.4,0.1
						c-0.1,0.1-0.2-0.1-0.2,0c-0.2,0.3,0.2,0,0.3,0l-0.3,0.2c0.2,0.1,0.5,0.2,0.7,0.4c-0.1,0-0.2,0.1-0.3,0.2
						c0.3,0.1,0.4,0.6,0.4,0.9l0.3-0.1c0,0-0.1,0.1-0.1,0.1c0,0.2,0.2-0.1,0.3-0.1c0.1,0-0.1,0.2-0.2,0.2c0.3,0,0.8,0.1,0.7,0.5
						l-0.1,0c0,0.2,0.6-0.2,0.5,0.1l-0.1,0c0.1,0.4,0.6,0.5,0.6,1.1c0.3-0.3,0.3,0.4,0.6,0c0.1,0.4,0,0.5,0.3,0.8
						c0.1,0.1,0.3-0.3,0.4-0.3l-0.1,0.3l0.2-0.3l-0.1,0.4l0.1,0c0,0,0-0.2,0-0.2c0.2-0.1,0.2,0.3,0.2,0.5c0,0,0.3-0.2,0.3-0.2
						c-0.1,0.1-0.1,0.1-0.1,0.2c0.2-0.3-0.1,0.3,0,0c0-0.1,0.1-0.2,0.1-0.2c-0.1,0.2-0.1,0.2,0,0.2l-0.2,0.1c0,0.1,0.1,0,0.1,0.1
						c0.1-0.1,0.4-0.2,0.5-0.2l-0.3,0.1c0.2,0,0.1-0.1,0.4-0.1c0,0.1-0.3,0.1-0.5,0.1l0.1,0c-0.1,0-0.1,0-0.3,0
						c0.2,0-0.3,0.2,0.1,0.2l-0.1,0c0,0.2,0.2,0.3,0.2,0.5c0.3,0,0.2,0.1,0.5,0.1c-0.1,0.2-0.3,0.4-0.2,0.6c0.2,0.1,0.2,0,0.4,0
						c-0.3,0-0.2,0.2-0.4,0.2c0.1,0.2,0.1,0.3,0.3,0.6c0.1,0,0.1-0.1,0.2-0.1c0,0-0.1,0.1-0.2,0.1l0,0c0.4,0.3-0.7,0.8-0.1,1l0,0
						l0.3,0.2c0,0.1-0.2-0.1-0.3,0c0.4,0.3,0,0.5,0.3,0.7c-0.7,0.2,0.1,0.7-0.4,0.9l0.2,0c0.2,0.1-0.1,0.1-0.1,0.1
						c0.1,0,0.2-0.1,0.3,0c0.2,0.5-0.2,1.1-0.4,1.7c-0.1,0.2,0.9,0.1,0.5,0.4l-0.3-0.1c0.4,0.4-0.1,0.7,0.3,1.6
						c-0.1,0-0.2,0-0.2-0.1c-0.2,0.2,0.1,0.6,0.3,0.5c0,0.1-0.2,0.1-0.2,0.2c-0.1,0.2,0.4,0.2,0.2,0.4c0,0-0.1,0-0.1,0
						c0.1,0,0.2,0.4,0.4,0.2c0,0.3,0.4,0.3,0.4,0.5c0.3-0.2,0.3,0.4,0.6,0c-0.3,0.4,0.3,0.5,0.5,0.3c-0.1,0.1,0.1,0.2,0,0.3
						c0.2,0,0.4,0,0.4-0.3c0.1,0.3,0.3,0.2,0.5,0.1c0.2-0.1,0.3-0.2,0.4,0.1c0.3-0.3,0.6-0.5,0.9-0.7c0.1,0.4-0.3,0.1-0.2,0.6
						c0.3-0.2,0.4-0.6,0.7-0.6c0.1,0,0,0.2,0,0.3c0.3-0.2,0.6-0.1,0.8-0.3c0,0,0,0.1,0,0.1c0,0,0.1,0,0.1-0.2l0,0.1
						c-0.1-0.3,0.1-0.6,0.1-0.8c0,0.6,0.3,0.1,0.3,0.9c0,0,0.1-0.1,0-0.3c0.1,0,0.1,0.1,0.1,0.3c0.2-0.1,0.1-0.3,0.2-0.4
						c0,0.1,0,0.1,0,0.3c0-0.2,0.1-0.4,0.2-0.4c0,0.1,0,0.1,0,0.1c0.2-0.1,0.3-0.6,0.6-0.4c0,0.4,0.1,0.1,0.2,0.5l0.1-0.1l-0.1-0.2
						c0.1,0,0.2-0.3,0.3-0.2l-0.1,0.2l0.2-0.1l-0.2-0.1c0.1-0.2-0.1-0.5,0.1-0.4c0,0,0.1,0,0.2,0.2l0,0c0-0.1,0.1-0.3,0.2-0.2
						c0,0.1,0.1,0.4,0.1,0.5c0-0.3,0.3-0.1,0.3-0.5c0,0.1,0,0.3,0,0.3l0-0.3c0.1,0.1,0.1,0.1,0.1,0.3c0.2,0-0.2-0.5,0.1-0.3
						c0,0,0,0.1,0,0.1c0.2,0.1,0.4-0.2,0.6-0.2c0.1,0.4-0.1,0.1,0,0.4c0.3-0.1,0.4-0.6,0.7-0.5l-0.1,0c-0.1-0.5,0.3,0.2,0.3-0.1
						c0,0,0,0.3,0,0.2c0.2,0,0.3-0.2,0.6-0.4l0,0.1c0.1,0.1,0.3,0,0.4,0c0-0.1,0.1-0.1,0-0.3c0.5,0.7,0.5-0.6,1,0c0,0-0.1,0.1,0,0.1
						l0.2-0.2c-0.1-0.2-0.1-0.1-0.2-0.3c0-0.1,0-0.3,0.1-0.3c-0.1,0.2,0.1,0.4,0.2,0.5c0-0.1,0-0.1-0.1-0.2c0.2,0.4-0.1-0.5,0.2-0.2
						l0,0.1c0.1-0.1,0.1-0.3,0.2-0.2c0.1,0.2,0,0.1,0,0.4c0.1,0,0.1-0.5,0.2-0.3c0,0.1-0.1,0.1-0.1,0.2c0.2,0.3,0.2,0.2,0.3,0.2l0,0
						l0.2,0.1l-0.1-0.1c-0.1-0.7,0.2-0.2,0.2-0.7c0,0.5,0.1,0.2,0.2,0.5c0.1,0.1,0.2,0.1,0.2,0.2c0-0.3,0.2,0.1,0.2-0.3
						c0,0.1,0.1,0,0.2,0.2c0.1-0.1-0.1-0.1-0.1-0.3c0-0.4,0.6,0.1,0.6-0.4c0.1-0.3-0.1-0.6,0-0.8c0.2,0.1,0.2,0.3,0.2,0.3
						c0.2,0,0.2-0.1,0.2-0.2c0,0.1,0.1,0.1,0.2,0.2c0-0.1-0.2-0.3,0-0.3c0.1,0.1,0.2,0.2,0.2,0.3c0-0.2-0.1-0.4-0.1-0.5
						c0.2,0.1,0.2,0.2,0.2,0.3c0-0.2,0.1-0.4-0.2-0.6l-0.1,0c0,0,0.2,0.1,0.2,0.1c0.1,0.2-0.2,0.1-0.3,0.1l0-0.1
						c-0.5-0.2-0.1,0.3-0.2,0.4l-0.3-0.3c0,0,0,0.1,0.1,0.2c0,0.1,0.1,0.2,0.1,0.2c-0.1,0-0.3-0.2-0.3-0.3c-0.2-0.1,0,0.2-0.2,0.1
						c0,0,0,0,0-0.1l0,0.2c0-0.1-0.2-0.2-0.1-0.2c-0.3-0.1,0,0.4-0.2,0.2l0,0c-0.1,0.2,0.2,0.3,0.2,0.7c0,0-0.1-0.1-0.3-0.3
						c-0.1-0.1-0.2-0.3-0.2-0.3l0.1,0.3c0,0-0.1,0-0.1-0.1c0,0.2,0.1,0.1,0.1,0.3c-0.2-0.2-0.2,0.3-0.5-0.2c0.1,0.2,0.2,0.1,0.1,0.3
						c-0.2-0.5-0.1,0.1-0.3,0c-0.1-0.3,0.1-0.2-0.1-0.4c0.1,0.4-0.2,0-0.3,0.1c0.1,0.3-0.1,0.2-0.2,0.4c0-0.1-0.3-0.1-0.5-0.2l0-0.1
						c0.1,0.4-0.1,0.3-0.2,0.4c-0.1-0.2-0.1-0.3,0-0.4l-0.1,0c0,0.1,0,0.2-0.1,0.2l0-0.3c-0.1,0.1-0.2,0.4-0.4,0.3
						c0.1,0.3,0.3,0.7,0.2,0.9c0-0.1-0.1-0.4-0.1-0.4c0,0,0,0.1-0.1,0.1l0-0.2c-0.1-0.1,0,0.2-0.1,0.2c0-0.2-0.1-0.1-0.1-0.3
						c0,0,0.1,0.1,0.1,0c-0.1,0-0.2-0.1-0.3-0.2c0,0.1,0.1,0.3,0,0.3c-0.1,0-0.1-0.2-0.2-0.3c0,0.1-0.1,0,0,0.3c0,0-0.1-0.1-0.1-0.2
						c0,0.1-0.3,0.1-0.2,0.4l0,0c0,0,0,0,0,0l0,0l0,0c-0.2,0.3-0.5,0-0.7,0.1l0-0.1c-0.1,0.1-0.3,0.1-0.3,0.4c0,0-0.1-0.2-0.1-0.3
						c-0.1,0.1-0.1,0.2-0.3,0.1c0.1-0.2-0.1-0.1,0.1-0.1c-0.2-0.1-0.2-0.2-0.3,0.1c0-0.3-0.2-0.3-0.2-0.2l0.1,0.2
						c-0.1,0.1-0.1,0-0.2,0l0-0.3c-0.4-0.3-0.3,0.8-0.7,0.2c0,0.2,0.2,0.1,0.2,0.4c-0.1,0-0.4-0.5-0.4-0.4c-0.2-0.1-0.1,0.5-0.3,0.4
						c0,0.1,0.1,0.4,0,0.6c-0.1,0-0.3-0.5-0.2-0.6c0,0,0.1,0,0.1,0.1c0-0.1,0.1-0.1,0-0.2l0,0.1c-0.1-0.1-0.3-0.1-0.3-0.3
						c-0.1,0.1,0,0.2,0.1,0.2c-0.2-0.1-0.3,0-0.4,0c0,0.1,0.1,0.2,0.1,0.2c-0.3-0.1-0.1,0.2-0.2,0.3c-0.1-0.2,0-0.4-0.2-0.2
						c-0.1-0.1-0.1-0.3-0.1-0.4c-0.1,0.3-0.3-0.1-0.4-0.1l0.1-0.1c0,0.1-0.1,0.1-0.1,0.1l0.1,0.2c-0.1,0-0.1,0-0.1-0.1
						c0,0.2,0.1,0.4,0.1,0.6c-0.1-0.1-0.2,0.2-0.2-0.1c0.2,0.1-0.1-0.3,0.1-0.4c0,0-0.1,0-0.1,0c0,0,0-0.1,0-0.1
						c-0.2-0.2,0,0.4-0.2,0.4c0-0.2-0.1-0.3-0.1-0.3c0.1,0,0.1,0.3,0,0.4c-0.1-0.1-0.1,0.1-0.2,0.1l0.1,0.1c0,0.2-0.1,0.2-0.1,0.2
						c0-0.1,0.1-0.1,0-0.2c0,0.3-0.3-0.3-0.4-0.1c-0.1-0.1-0.1-0.3-0.1-0.4c-0.1,0.3-0.2-0.2-0.3,0c0.1,0.2,0.1,0.2,0,0.4l0.2-0.2
						l-0.1,0.4c0.1,0,0.1-0.2,0.2-0.1c0,0.2-0.1,0.1,0,0.3c-0.2-0.3-0.2,0.2-0.3,0L65,131c-0.2-0.2-0.3,0.4-0.6,0.2l0.1,0.1
						c0,0.2-0.1,0.1-0.2,0.2c0-0.2-0.1-0.3-0.1-0.4c0,0.1-0.2,0-0.1,0.4c0,0-0.1-0.2-0.1-0.2c-0.1-0.1-0.1,0.6-0.3,0.5
						c0.1-0.2,0-0.4,0.1-0.5c0,0,0,0-0.1,0.1c0-0.1-0.2,0.3-0.1,0.1c0,0.1-0.1,0.3-0.2,0.3c0,0,0-0.1,0-0.1c0,0.1-0.1,0.1-0.2,0.3
						c0.1-0.3,0-0.3-0.1-0.4c-0.1,0-0.2-0.1,0-0.3c-0.1,0-0.2-0.1-0.2-0.1c0.1,0,0.1-0.1,0.1,0c0.1-0.2-0.6,0.2-0.4,0
						c0.3-0.2,0.2,0,0.3-0.1c0.6-0.2-0.1-0.1,0.3-0.3l0,0c0.2-0.1-0.2,0-0.2-0.2c0,0,0.1,0,0.1,0c-0.3-0.1-0.4-0.4-0.5-0.5
						c0.3,0.1,0.1,0.1,0.4,0.1c0-0.1-0.4,0-0.5-0.1c0.1,0,0.3-0.1,0.5-0.2l0,0.1c0.4-0.1,0-0.2,0.1-0.3l0.2,0c0-0.2-0.4-0.2-0.4-0.5
						l-0.1,0c-0.4-0.1,0.2-0.1-0.1-0.2l0.4,0c-0.1-0.1-0.4-0.3-0.5-0.4c0.3,0.1,0.4,0.3,0.6,0.4c0-0.1,0-0.3-0.2-0.3
						c0,0,0.1,0.1,0.1,0.1c-0.3-0.1-0.5-0.2-0.5-0.4c0.8,0,0.2-0.4,0.8-0.6c-0.3-0.3,0.1-0.6,0-0.9c-0.6,0.2,0-0.1-0.6,0
						c0-0.1,0-0.1,0-0.1l0.4-0.3c0.2-0.1,0.1,0.1,0.3,0.1c0-0.2,0.3-0.1,0.4-0.2c-0.2,0-0.3,0-0.2-0.1l-0.3,0.2
						c-0.3-0.2,0.5-0.2,0.2-0.5l0.2,0.1c-0.1-0.1,0-0.5-0.5-0.6c0.1,0,0.2-0.1,0.3,0c0-0.3-0.6-0.6-0.3-0.9l0.2,0
						c0-0.1-0.3-0.1-0.1-0.2c0.1,0,0.2,0,0.2,0c-0.1,0-0.3-0.1-0.2-0.2l0.2,0c0.2-0.3-0.5-0.4-0.6-0.6c0.4-0.1,0.5-0.3,0.6-0.4
						l0.1,0c0-0.4-0.4-0.5-0.7-0.9c0.4-0.3-0.1-1-0.2-1.6c0,0.1-0.3,0.2-0.4,0.2c0-0.2-0.4,0-0.2-0.3l0,0c0.2-0.4-0.1-0.5-0.3-0.6
						l-0.3,0.4c-0.2-0.9-1-0.1-0.9-0.8c-0.1,0.1-0.2,0.1-0.2,0.2l0.1-0.3c-0.1-0.1-0.1-0.2-0.2-0.2l0.1-0.1c0,0-0.6,0.6-0.7,0.5
						l0.3-0.3c-0.1-0.1,0-0.5-0.4-0.4c0,0,0.1-0.1,0.2-0.1c-0.1-0.1,0-0.5-0.5-0.1c0.3-0.2-0.1-0.2-0.3-0.2l0.2-0.2
						c-0.4,0.1-0.4,0.2-0.6,0.1c0-0.1,0.2-0.2,0.1-0.1c0-0.2-0.3,0.1-0.2-0.1l0.2-0.1c-0.1-0.1-0.1,0-0.3,0c-0.1,0-0.1-0.2,0.1-0.4
						c-0.1,0.1-0.3,0.1-0.3,0c0.1-0.1,0.1-0.1,0.2-0.1c0-0.3-0.4-0.1-0.3-0.3c0.1-0.1,0.1-0.1,0.1-0.1c0.1,0.1,0.2,0.3,0.1,0.3
						c0.2-0.2,0.2-0.3,0.5-0.4c-0.2,0-0.7,0.1-0.7-0.1c0,0,0,0,0.1-0.1l0,0c0,0,0,0-0.1,0c0-0.1,0-0.1,0-0.1c0.2-0.1,0-0.2,0-0.3
						c-0.2,0.2-0.2,0.1-0.4,0.3c0,0,0,0,0.1,0c0,0,0,0,0,0l0,0c0,0,0.1,0.1,0.1,0.1c-0.1,0-0.3,0.1-0.2-0.1
						c-0.2,0.1-0.3,0.2-0.4,0.2c0.3-0.3,0.3-0.6,0.5-0.7c-0.2-0.1-0.4-0.3-0.9-0.1c-0.1,0,0.1-0.1,0.1-0.2c0.1,0,0.1,0,0.2,0
						c-0.2,0-0.2-0.3-0.6-0.1c0.1-0.2,0.3-0.1,0.2-0.3l0.1,0c0.3-0.7-1.1,0-0.8-0.8c0,0.1,0,0.1-0.1,0.1c0-0.6-0.8-0.7-0.7-1.4
						c0-0.2-0.2-0.1-0.4,0l0.2-0.2l-0.4,0.1c-0.3,0,0.4-0.7-0.1-0.7l-0.2,0.1c0-0.1-0.3-0.2-0.1-0.3c0,0-0.2,0.1-0.1,0l0.1-0.1
						l-0.4-0.1c0-0.2,0.5-0.3,0.4-0.5c-0.1-0.1-0.5,0-0.6,0.1c0,0,0,0.1-0.2,0.2l-0.1,0c-0.4,0.2-0.9,0.4-1,0.8l0.3,0l-0.2,0.2
						l-0.1-0.1c-0.1,0.2,0,0.1,0.2,0.1c-0.1,0.1-0.2,0.1-0.2,0.2l0.5-0.1c-0.1,0.1-0.3,0.1-0.4,0.3c0.2,0,0.3-0.3,0.5-0.2
						c-0.1,0.2-0.3,0.2-0.1,0.2c-0.1,0.1-0.2,0.1-0.2,0.1c0.2,0,0.2,0.1,0.4,0c-0.2,0.2,0.2,0.2-0.2,0.4c0.1,0,0.4-0.1,0.4,0
						c-0.5,0.2,0.1,0.2-0.4,0.5c0.5-0.2,0.4,0.2,0.7,0.2c0,0-0.1,0-0.1,0c0,0.1-0.1,0.2-0.1,0.3c0.3-0.2,0.5-0.1,0.7-0.2
						c-0.2,0.3-0.4,0.2-0.7,0.4c0.3-0.2,0.4,0,0.6-0.2c-0.1,0.2-0.1,0.1-0.3,0.3c0.4-0.3,0.1,0,0.4-0.1c-0.1,0.2-0.4,0.3-0.2,0.3
						C54,115.8,53.8,115.8,53.8,115.8 M56.5,118.1L56.5,118.1C56.5,118.1,56.5,118.1,56.5,118.1C56.5,118.1,56.5,118.1,56.5,118.1
						 M56.7,118.4c0,0,0-0.1-0.1-0.1c0.1-0.1,0.2-0.1,0.2-0.1C56.7,118.2,56.7,118.3,56.7,118.4 M57.9,116.7
						C57.9,116.7,57.9,116.8,57.9,116.7C57.9,116.8,57.8,116.8,57.9,116.7l-0.1,0.1C57.8,116.8,57.9,116.7,57.9,116.7 M89.6,136.7c0,0.1,0.3-0.1,0.6-0.2c0.1,0-0.2,0.1-0.4,0.2c0.1,0,0.4,0,0.4,0c-0.1,0-0.1,0-0.2,0
						c0.3,0,0.1,0.2,0.4,0.1c0,0-0.1,0-0.1,0c0.2-0.1,0.4-0.1,0.5-0.1c0,0,0.2,0,0,0.1c0,0-0.1,0-0.2,0l0.1,0c-0.3,0.1-0.1,0-0.4,0
						c0.1,0,0.4,0.1,0.3,0.2c-0.3,0.1-0.1-0.1-0.4,0l0.1-0.1c-0.5,0.2,0-0.1-0.5,0.1c-0.1,0.1,0.2,0.1,0.1,0.2
						c0.2,0,0.3-0.1,0.5-0.1c0.4,0.1-0.8,0.3-0.4,0.3c0.2,0,0.7,0,0.4,0.1l-0.4,0c0,0.1,0.6,0,0.3,0.2c-0.2,0-0.1-0.1-0.2-0.1
						c-0.3,0.1,0.2,0,0.2,0.1l-0.3,0.1c0.1,0.1,0.3,0.3,0.4,0.4c-0.1,0-0.2,0-0.3,0c0.2,0.2,0,0.4-0.2,0.7l0.3,0c0,0-0.1,0.1-0.2,0
						c-0.1,0.1,0.2,0,0.3,0c0,0-0.2,0.1-0.2,0.1c0.3,0.1,0.6,0.3,0.3,0.5l-0.1,0c-0.1,0.2,0.6,0,0.4,0.2l-0.1,0
						c0,0.4,0.4,0.6,0.2,1.1c0.3-0.2,0.1,0.4,0.5,0c-0.1,0.4-0.2,0.4-0.1,0.8c0.1,0.1,0.3-0.2,0.4-0.2l-0.1,0.3l0.3-0.2L92,142
						l0.1,0c0,0,0-0.2,0-0.2c0.2-0.1,0.2,0.3,0.2,0.5c0,0,0.4-0.2,0.4-0.2c0,0.1-0.1,0.2-0.2,0.2c0.3-0.3,0,0.3,0.2,0.1
						c0-0.1,0-0.2,0.1-0.2c0,0.2,0.3,0.2,0.4,0.1l0,0.2c0.3,0,0.6-0.2,0.9-0.3c-0.1-0.1-0.2-0.4-0.1-0.5l0.1,0.3
						c0-0.2-0.1-0.1-0.1-0.4c0.1,0,0.2,0.3,0.2,0.5c0,0,0.1-0.1,0.1-0.1c0,0.1,0,0.1,0.1,0.3c0-0.2,0.2,0.3,0.2-0.1l0,0.1
						c0.2-0.1,0.2-0.2,0.4-0.3c-0.1-0.3,0-0.2,0-0.5c0.1,0,0.3,0.2,0.4,0.1c0-0.2-0.1-0.2-0.1-0.4c0.1,0.2,0.2,0.2,0.2,0.4
						c0.1-0.1,0.2-0.1,0.3-0.4c-0.1-0.1-0.1-0.1-0.1-0.2c0-0.1,0.1,0.1,0.2,0.2l0,0c0.1-0.4,0.8,0.5,0.7-0.1l0,0l0.1-0.3
						c0.1,0,0,0.2,0.2,0.3c0-0.5,0.3-0.1,0.4-0.4c0.4,0.6,0.4-0.2,0.8,0.1l-0.1-0.2c0-0.2,0.1,0.1,0.1,0.1c-0.1-0.1-0.1-0.1-0.1-0.2
						c0.2-0.4,0.8-0.1,1.3-0.2c0.2,0-0.4-0.8,0-0.6l0.1,0.3c0.1-0.5,0.5-0.3,0.6-0.7c0,0.1,0.1,0.2,0.1,0.2c0.2,0.2,0.2-0.1,0.1-0.3
						c0,0,0.1,0.1,0.2,0.2c0.1,0.1,0-0.3,0.1-0.2c0,0,0,0.1,0,0.1c0-0.1,0.2-0.1,0-0.3c0.2,0,0.1-0.2,0.3-0.1c-0.1-0.3,0.2,0,0-0.4
						c0.3,0.4,0.4,0.2,0.3,0c0.1,0.1,0.1,0.1,0.2,0.2c0.1-0.1,0.1-0.2-0.1-0.3c0.5,0.3,0-0.5,0.5,0c0-0.3,0.1-0.6,0.2-0.8
						c0.3,0.3-0.1,0.2,0.2,0.5c0-0.3-0.1-0.6,0.1-0.7c0.1,0,0.1,0.2,0.2,0.2c0-0.3,0.3-0.2,0.3-0.5c0,0,0,0.1,0.1,0.1
						c0,0,0.1,0,0-0.2l0,0.1c-0.2-0.2-0.3-0.5-0.5-0.6c0.4,0.5,0.2,0,0.7,0.6c0,0-0.1-0.1-0.2-0.2c0.1,0,0.1,0,0.2,0.2
						c0-0.2-0.2-0.3-0.1-0.4c0.1,0.1,0.1,0.1,0.2,0.2c-0.1-0.2-0.2-0.3-0.1-0.4c0,0,0.1,0.1,0.1,0.1c0.1-0.1-0.2-0.5,0-0.6
						c0.3,0.3,0.1,0,0.4,0.3l0-0.1l-0.2-0.1c0.1-0.1-0.1-0.3,0-0.3l0.1,0.1l0-0.2l-0.2,0c-0.1-0.2-0.4-0.3-0.2-0.3
						c0,0,0.1-0.1,0.3,0l0,0c-0.1-0.1-0.1-0.2,0-0.2c0.1,0.1,0.3,0.3,0.4,0.3c-0.2-0.2,0-0.2-0.2-0.4c0.1,0.1,0.2,0.2,0.2,0.2
						l-0.2-0.2c0.1,0,0.1,0,0.2,0.1c0.1-0.1-0.4-0.2-0.2-0.2c0,0,0,0,0.1,0.1c0.2-0.1,0-0.3,0.2-0.3c0.3,0.2,0,0.1,0.3,0.3
						c0-0.2-0.2-0.6,0-0.7l-0.1,0c-0.4-0.3,0.3,0,0.1-0.2c0,0,0.2,0.2,0.2,0.1c0.1-0.1,0-0.3-0.1-0.5l0.1,0.1c0.1,0,0.2-0.1,0.2-0.2
						c-0.1-0.1-0.1-0.1-0.3-0.2c0.8,0.1-0.2-0.6,0.5-0.5c0,0,0.1,0.1,0.1,0.1l0-0.2c-0.2-0.1-0.1,0-0.3-0.1
						c-0.1-0.1-0.2-0.2-0.2-0.2c0.1,0.1,0.3,0.1,0.5,0.2c-0.1,0-0.1-0.1-0.2-0.1c0.4,0.1-0.4-0.2-0.1-0.2l0.1,0
						c0-0.1-0.2-0.2-0.1-0.2c0.3,0.1,0.1,0.1,0.3,0.2c0-0.1-0.4-0.3-0.2-0.3c0.1,0.1,0,0.1,0.1,0.1c0.3,0,0.2,0,0.3,0l0,0l0.2-0.1
						l-0.1,0c-0.6-0.3-0.1-0.2-0.5-0.5c0.4,0.2,0.2,0.1,0.5,0.2c0.1,0,0.2,0,0.3,0c-0.2-0.1,0.2,0-0.1-0.2c0.1,0,0-0.1,0.3,0
						c-0.1-0.1-0.2,0-0.3-0.1c-0.3-0.2,0.5-0.2,0.1-0.4c-0.2-0.2-0.5-0.3-0.6-0.4c0.2,0,0.3,0.1,0.3,0.1c0.2,0,0.1-0.1,0-0.2
						c0.1,0,0.2,0,0.3,0c0-0.1-0.3-0.1-0.2-0.1c0.1,0,0.3,0.1,0.4,0.1c-0.1-0.1-0.2-0.2-0.3-0.3c0.2,0,0.2,0.1,0.4,0.1
						c-0.1-0.1-0.1-0.2-0.4-0.3l-0.1,0c0,0,0.2,0,0.3,0c0.2,0.1-0.1,0.1-0.2,0.1l-0.1-0.1c-0.6,0,0.1,0.2,0,0.3l-0.4-0.1l0.3,0.2
						c-0.1,0-0.3,0-0.4-0.1c-0.2,0,0.1,0.1-0.1,0.1c0,0-0.1,0-0.1,0l0.1,0.1c-0.1,0-0.3,0-0.2-0.1c-0.3,0.1,0.3,0.2,0,0.2l0,0
						c0.1,0.2,0.3,0.1,0.6,0.3l-0.8-0.1l0.3,0.1c0,0,0,0-0.2,0c0.2,0.1,0.1,0,0.3,0.1c-0.3,0,0.1,0.2-0.4,0.1c0.2,0.1,0.2,0,0.3,0.1
						c-0.5-0.1,0.1,0.1-0.2,0.1c-0.3-0.1-0.1-0.1-0.3-0.1c0.4,0.2-0.1,0.1-0.1,0.2c0.3,0.1,0.1,0.2,0.2,0.3c-0.1,0-0.2,0.1-0.4,0.1
						l-0.1,0c0.3,0.1,0.2,0.2,0.3,0.3c-0.2-0.1-0.3-0.1-0.4-0.2l0,0.1c0.1,0.1,0.2,0.1,0.2,0.2l-0.2-0.1c0,0.1,0.2,0.3,0,0.3
						c0.2,0.1,0.7,0.2,0.8,0.4c-0.1-0.1-0.3-0.1-0.4-0.2c0,0,0.1,0.1,0,0.1l-0.2-0.1c-0.1,0,0.2,0.1,0.1,0.1c-0.2-0.1-0.1,0-0.3-0.1
						c0,0,0.1,0,0,0c-0.1,0-0.2,0-0.3,0c0.1,0,0.2,0.1,0.2,0.2c0,0.1-0.2-0.1-0.3-0.1c0.1,0.1,0,0.1,0.2,0.2c0,0-0.1,0-0.2-0.1
						c0.1,0.1-0.1,0.2,0.2,0.3l0,0c0,0,0,0,0,0l0,0l0,0c0.2,0.3-0.3,0.2-0.2,0.4l-0.1,0c0.1,0.1,0,0.2,0.1,0.4c0,0-0.2,0-0.3-0.1
						c0,0.1,0.1,0.2-0.1,0.2c-0.1-0.1-0.1-0.1-0.1-0.1c-0.1,0-0.3,0-0.1,0.2c-0.2-0.2-0.3-0.1-0.3,0l0.2,0.1c0,0.1,0,0.1-0.1,0.1
						l-0.3-0.2c-0.4-0.1,0.4,0.6-0.2,0.4c0.2,0.2,0.2,0,0.4,0.2c-0.1,0-0.5-0.2-0.5-0.2c-0.2,0,0.3,0.4,0.2,0.4
						c0.1,0.1,0.4,0.2,0.4,0.4c-0.1,0-0.5-0.2-0.5-0.3c0,0,0,0,0.1,0c0,0,0-0.1-0.2-0.2l0.1,0.1c-0.1,0-0.2,0-0.3-0.1
						c0.1,0.1,0.1,0.1,0.2,0.1c-0.2,0-0.1,0.1-0.3,0.1c0.1,0,0.2,0.1,0.2,0.1c-0.2,0,0.1,0.2,0.1,0.3c-0.2-0.1-0.3-0.3-0.3-0.1
						c-0.1,0-0.2-0.2-0.3-0.3c0.1,0.2-0.2,0-0.3,0l0-0.1c0,0.1,0,0.1,0,0.1l0.2,0.1c-0.1,0-0.1,0-0.1-0.1c0.1,0.1,0.3,0.2,0.4,0.4
						c-0.1-0.1,0,0.2-0.2,0c0.2,0-0.2-0.2-0.2-0.3c0,0,0,0.1-0.1,0c0,0,0,0-0.1-0.1c-0.3-0.1,0.2,0.3,0.1,0.4
						c-0.1-0.1-0.3-0.2-0.2-0.2c0,0,0.2,0.2,0.3,0.3c-0.2,0,0,0.1,0,0.1l0.1,0c0.1,0.1,0.1,0.1,0.1,0.2c-0.1-0.1,0-0.1-0.1-0.1
						c0.2,0.3-0.3-0.1-0.2,0.1c-0.1-0.1-0.2-0.2-0.3-0.3c0.1,0.2-0.2-0.1-0.2,0.1c0.2,0.2,0.1,0.1,0.3,0.3l0-0.2l0.2,0.3
						c0,0,0-0.2,0-0.2c0.1,0.2,0.1,0.1,0.2,0.3c-0.3-0.2,0,0.2-0.2,0.1l-0.4-0.4c-0.3-0.1,0.1,0.4-0.2,0.4l0.1,0
						c0.1,0.2-0.1,0.1,0,0.2c-0.1-0.2-0.2-0.2-0.3-0.3c0.1,0.1-0.1,0.1,0.1,0.4l-0.2-0.2c-0.2,0,0.2,0.5,0.1,0.5
						c-0.1-0.2-0.2-0.3-0.3-0.4c0,0-0.1,0,0,0.1c-0.1-0.1,0.1,0.3-0.1,0.2c0,0.1,0.2,0.2,0.1,0.3c0,0-0.1-0.1-0.1-0.1
						c0.1,0.1,0,0.1,0.2,0.3c-0.5-0.4-0.3,0.2-0.7-0.1c0,0.1-0.1,0.2-0.1,0.3c0-0.1-0.1-0.1,0-0.1c-0.2-0.1,0.3,0.5,0,0.4
						c-0.2-0.2,0-0.2-0.1-0.3c-0.4-0.5-0.1,0.2-0.4-0.1l0,0c-0.2-0.2,0,0.3-0.1,0.3c0,0,0-0.1-0.1-0.1c0.1,0.3,0.1,0.5,0,0.6
						c-0.1-0.2,0-0.1-0.2-0.4c0,0.1,0.2,0.3,0.2,0.5c-0.1-0.1-0.2-0.2-0.4-0.4l0.1-0.1c-0.2-0.3-0.1,0.1-0.2,0l-0.1-0.1
						c-0.1,0.1,0.1,0.5,0,0.5l0.1,0.1c0.1,0.4-0.2-0.2-0.1,0.1l-0.2-0.3c0,0.1,0,0.4,0,0.5c-0.1-0.3-0.1-0.5-0.1-0.7
						c0,0-0.1,0.1-0.1,0.3c0,0,0-0.1,0-0.1c0.1,0.3,0.1,0.5,0,0.5c-0.3-0.7-0.3,0-0.7-0.5c0,0.3-0.4,0-0.5,0.2c0.3,0.5,0,0,0.2,0.6
						c0,0.1,0,0.1-0.1,0l-0.3-0.3c-0.1-0.1,0-0.1-0.1-0.3c-0.1,0-0.1-0.2-0.3-0.3c0.1,0.2,0.1,0.3,0,0.2l0.2,0.2
						c0,0.4-0.3-0.4-0.3-0.1l0-0.2c0,0.1-0.3,0.1-0.1,0.6c0-0.1-0.1-0.2-0.1-0.3c-0.2,0-0.2,0.6-0.4,0.4l0-0.1c0,0.1,0,0.3,0,0.2
						c0-0.1,0-0.1-0.1-0.1c0,0.1,0,0.3-0.1,0.2l0-0.2c-0.2-0.1-0.1,0.5-0.2,0.6c-0.2-0.4-0.3-0.5-0.4-0.5l0-0.1
						c-0.2,0-0.2,0.5-0.3,0.7c-0.1-0.1-0.1-0.2-0.2-0.2c0,0,0-0.1-0.1-0.1c0,0-0.1,0-0.1-0.1c0,0.1,0,0.4,0,0.4c0-0.1-0.1,0.3,0-0.1
						l0,0c0-0.4,0-0.3,0-0.3l-0.1,0.6c0-0.4,0-0.3-0.1-0.3c-0.1,0.1-0.2,0.1,0-0.2c-0.1,0.1-0.1,0.1-0.2,0.2l0.2-0.3
						c0-0.1,0.1-0.1,0-0.1l0.2-0.2c0,0-0.6,0.6-0.7,0.5l0.3-0.3c0-0.1,0.3-0.3-0.1-0.1c0.1,0,0.2-0.1,0.2-0.1c0,0,0.3-0.1-0.3,0
						c0.4-0.1,0-0.1-0.2-0.2l0.3,0c-0.4,0-0.5,0-0.6,0c0,0,0.2-0.1,0.2,0c0.1-0.1-0.3,0-0.1-0.1l0.2,0c0-0.1-0.1-0.1-0.3-0.1
						c-0.1,0,0-0.2,0.3-0.2c-0.2,0-0.4,0-0.3-0.1c0.1,0,0.2,0,0.2,0c0.2-0.2-0.3-0.2-0.1-0.3c0.1,0,0.1,0,0.2,0c0,0.1,0,0.2,0,0.2
						c0.3,0,0.3-0.1,0.6-0.1c-0.2,0-0.6-0.1-0.5-0.2c0,0,0,0,0.1,0l0,0c0,0,0,0,0,0c0,0,0.1-0.1,0.1-0.1c0.2,0,0.1-0.1,0.1-0.2
						c-0.3,0-0.2,0-0.5,0c0,0,0,0,0,0c0,0,0,0,0,0l0,0c0,0,0,0.1,0,0.1c-0.1,0-0.3,0-0.1-0.1c-0.2,0-0.4,0-0.5,0
						c0.4-0.1,0.6-0.2,0.8-0.3c-0.2-0.1-0.1-0.3-0.7-0.3c-0.1,0,0.1-0.1,0.2-0.1c0.1,0,0.1,0,0.1,0c-0.1-0.1-0.1-0.2-0.5-0.2
						c0.1-0.1,0.3,0,0.3-0.1l0.1,0c0.5-0.4-1-0.3-0.4-0.7c0,0-0.1,0.1-0.1,0.1c0.2-0.5-0.5-0.6-0.3-1.2c0-0.2-0.2,0-0.4,0l0.2-0.2
						L91,135c-0.3,0.1,0.4-0.7-0.1-0.5l-0.1,0.2c0-0.1-0.3-0.1-0.1-0.2c0,0-0.1,0.2-0.1,0l0.1-0.1c0,0-0.3,0.1-0.3,0.1
						c-0.1-0.2,0.4-0.5,0.2-0.7c-0.1,0-0.4,0.3-0.4,0.4c0,0,0,0.1,0,0.3l-0.1,0c-0.2,0.4-0.4,0.9-0.5,1.2l0.2-0.2l-0.1,0.2l0,0
						c-0.1,0.2,0,0,0.1-0.1c-0.1,0.1-0.1,0.2-0.1,0.2c0,0,0.1-0.1,0.1-0.2c0.1-0.1,0.1-0.2,0.1-0.2c-0.1,0.2-0.2,0.3-0.3,0.4
						c0.1-0.2,0.2-0.3,0.3-0.4c-0.1,0.2-0.2,0.3-0.1,0.2c-0.1,0.1-0.1,0.2-0.2,0.2c0.1-0.1,0.1,0,0.3-0.2c-0.2,0.2,0.1,0-0.2,0.3
						c0.1-0.1,0.3-0.2,0.3-0.2c-0.4,0.3,0,0.1-0.4,0.4c0.4-0.3,0.2,0,0.5-0.1c0,0-0.1,0-0.1,0c0,0.1-0.1,0.1-0.2,0.2
						c0.3-0.2,0.5-0.2,0.7-0.2c-0.3,0.2-0.4,0.2-0.7,0.3c0.3-0.1,0.3-0.1,0.6-0.2c-0.2,0.1-0.1,0.1-0.4,0.2c0.5-0.2,0.1,0,0.4-0.1
						c-0.2,0.1-0.4,0.2-0.3,0.2C89.8,136.7,89.6,136.7,89.6,136.7 M90.8,138.4L90.8,138.4C90.8,138.4,90.8,138.3,90.8,138.4
						C90.8,138.3,90.8,138.3,90.8,138.4 M90.8,138.6C90.8,138.5,90.8,138.5,90.8,138.6c0.1-0.1,0.2-0.1,0.2-0.1
						C91,138.5,90.9,138.5,90.8,138.6 M92.7,138C92.8,138,92.7,138,92.7,138c-0.1,0-0.1,0-0.1,0l0,0C92.6,138,92.7,138,92.7,138z"/>


</svg>
