<?xml version="1.0" encoding="utf-8"?>
<!-- Generator: Adobe Illustrator 19.2.0, SVG Export Plug-In . SVG Version: 6.00 Build 0)  -->
<svg version="1.1" id="Layer_1" xmlns="http://www.w3.org/2000/svg" xmlns:xlink="http://www.w3.org/1999/xlink" x="0px" y="0px"
	 viewBox="0 0 200 200" style="enable-background:new 0 0 200 200;" xml:space="preserve">
<style type="text/css">
	.st0{fill:none;stroke:#7F7F7F;stroke-miterlimit:10;}
</style>
<path class="st0" d="M29,96.3c9.3-12,40-26.7,85.7-23.3s45,20.7,51,23.3c6,2.7-18.7,15.3-18.7,15.3s-42,17.3-68.7,12
	C51.7,118.3,29,96.3,29,96.3z M159.7,98.6c0,0-23.5-3.6-64.4,2.4S35,94.3,35,94.3 M141,83.7 M129.7 94.3 L141 83.7 M118.7 94.3 L130 83.7 M105.7 94.3 L124.3 76.7"/>
<!-- <line class="st0" x1="129.7" y1="94.3" x2="141" y2="83.7"/>
<line class="st0" x1="118.7" y1="94.3" x2="130" y2="83.7"/>
<line class="st0" x1="105.7" y1="94.3" x2="124.3" y2="76.7"/>
<line class="st0" x1="91.7" y1="94.3" x2="110.3" y2="76.7"/>
<line class="st0" x1="72.7" y1="98.3" x2="91.3" y2="80.7"/>
<line class="st0" x1="56.7" y1="98.3" x2="75.3" y2="80.7"/> -->
</svg>
