<?xml version="1.0" encoding="utf-8"?>
<!-- Generator: Adobe Illustrator 19.2.0, SVG Export Plug-In . SVG Version: 6.00 Build 0)  -->
<svg version="1.1" id="Layer_1" xmlns="http://www.w3.org/2000/svg" xmlns:xlink="http://www.w3.org/1999/xlink" x="0px" y="0px"
	 viewBox="0 0 620 500" style="enable-background:new 0 0 620 500;" xml:space="preserve">
<style type="text/css">
	.st0{fill:none;stroke:#003F20;}
	.st1{fill:none;stroke:#A0A0A0;}
</style>
<g>
	<path class="st0" d="M231.7,221.2c0,0-24-4.2-27.3,30.8c-3.3,34.9,10.7,71.4,5.3,80c18.9-4.3,24.6-15.8,24.6-15.8
		s13.1,51.1,52.4,64.9c11.3,3.5,16.2,8.2,16.2,8.2s22.7-48.3-7.7-89.4c24.3,22.6,42.6,21.7,42.6,21.7l-3.1-6.7
		c0,0,54.6,22.5,83.8-21.1c-12.1-6.1-22.2-63.1-64.8-65c17.7-6.5,20.5-16.8,20.5-16.8s-38.5-21.7-71.6-17.1
		c44.3-9,66.6-29.4,68-51.4c-8.1-0.4-49.8-33.5-81.7-17.7C256.9,141.7,201.6,189.6,231.7,221.2 M303.9,386.2c0,0-20.3-57-40.3-79.6c-20-22.6-33.6-66.2-23.5-83.4c61.4-6.9,155.9,94.8,180.6,70.4 M239.3,224.6c0,0,17.8-80.1,132.7-79.8"/>
</g>
</svg>
