<?xml version="1.0" encoding="utf-8"?>
<!-- Generator: Adobe Illustrator 19.2.0, SVG Export Plug-In . SVG Version: 6.00 Build 0)  -->
<svg version="1.1" id="Layer_1" xmlns="http://www.w3.org/2000/svg" xmlns:xlink="http://www.w3.org/1999/xlink" x="0px" y="0px"
	 viewBox="0 0 620 500" style="enable-background:new 0 0 620 500;" xml:space="preserve">
<g>
		<path d="M288.2,304.6c1.1,12.9,3.1,25.6,6,38.2c2.4,10,4.3,22.8,12.1,30.3c1.4,1.3,3.5-0.8,2.1-2.1c-7.6-7.4-9.5-20.9-11.7-30.8
			c-2.7-11.7-4.5-23.6-5.5-35.6C291,302.7,288,302.7,288.2,304.6L288.2,304.6 M365.8,267.1c34.8,2.2,68.8,11.4,99.8,27.3c1.7,0.9,3.2-1.7,1.5-2.6c-31.5-16.1-66-25.5-101.3-27.7
			C363.9,264,363.9,267,365.8,267.1L365.8,267.1z"/>

</g>
</svg>
