<?xml version="1.0" encoding="utf-8"?>
<!-- Generator: Adobe Illustrator 19.2.0, SVG Export Plug-In . SVG Version: 6.00 Build 0)  -->
<svg version="1.1" id="Layer_1" xmlns="http://www.w3.org/2000/svg" xmlns:xlink="http://www.w3.org/1999/xlink" x="0px" y="0px"
	 viewBox="0 0 620 500" style="enable-background:new 0 0 620 500;" xml:space="preserve">
<g>
		<path d="M254.1,254.6c1.6,4.3,3.4,8.6,5.5,12.7c1.4,2.9,3,7.6,6.2,9.3c2.3,1.2,4.2,0.4,6.3-1c4.2-2.9,8.2-6.3,12.2-9.4
			c-0.8-0.1-1.6-0.2-2.4-0.3c3,6.7,6.8,13,11.2,18.8c2.3,3,7.6,11.8,12.4,10.5c1.9-0.5,2.9-2.6,3.7-4.2c1.7-3.7,3-7.6,4.5-11.3
			c3.4-8.5,6.8-17.1,10.2-25.6c-0.6,0.3-1.2,0.7-1.8,1c7.7,3.1,15.3,6.2,23,9.3c0.9,0.4,2-0.5,1.9-1.4c-0.7-10.2-8-17.3-13.2-25.6
			c-0.6-0.9-1.6-2.2-1.8-3.2c-0.5-2.3,0.7-3,2.4-3.9c2.1-1.1,4.1-2.4,5.9-3.9c4-3.3,7-7.4,9.1-12.1c0.8-1.7-1.8-3.3-2.6-1.5
			c-2.6,5.7-6.6,10.6-12,13.9c-3,1.9-7.5,2.5-6.4,6.9c1.1,4.6,5.2,9,8,12.8c3.7,5.1,7.2,10.3,7.6,16.7c0.6-0.5,1.3-1,1.9-1.4
			c-7.7-3.1-15.3-6.2-23-9.3c-0.8-0.3-1.6,0.4-1.8,1c-2.4,6.1-4.9,12.2-7.3,18.3c-1.2,3-2.4,6.1-3.6,9.1c-0.9,2.3-2.2,8.2-4,9.9
			c-3,2.8-6-2.1-7.7-4.1c-1.9-2.2-3.7-4.5-5.3-6.9c-3.3-4.8-6.1-9.8-8.6-15.1c-0.4-1-1.7-0.8-2.4-0.3c-2.5,1.9-5,3.8-7.4,5.8
			c-1.2,1-2.6,2.5-4.1,3.1c-2.2,0.9-3.9,0.4-5.5-1.5c-1.6-1.9-2.6-4.9-3.7-7.2c-1.6-3.4-3-6.9-4.4-10.4
			C256.3,252,253.4,252.8,254.1,254.6L254.1,254.6 M288.2,304.6c1.1,12.9,3.1,25.6,6,38.2c2.4,10,4.3,22.8,12.1,30.3c1.4,1.3,3.5-0.8,2.1-2.1c-7.6-7.4-9.5-20.9-11.7-30.8
			c-2.7-11.7-4.5-23.6-5.5-35.6C291,302.7,288,302.7,288.2,304.6L288.2,304.6 M365.8,267.1c34.8,2.2,68.8,11.4,99.8,27.3c1.7,0.9,3.2-1.7,1.5-2.6c-31.5-16.1-66-25.5-101.3-27.7
			C363.9,264,363.9,267,365.8,267.1L365.8,267.1z"/>
</g>
</svg>
