<?xml version="1.0" encoding="utf-8"?>
<!-- Generator: Adobe Illustrator 19.2.0, SVG Export Plug-In . SVG Version: 6.00 Build 0)  -->
<svg version="1.1" id="Layer_1" xmlns="http://www.w3.org/2000/svg" xmlns:xlink="http://www.w3.org/1999/xlink" x="0px" y="0px"
	 viewBox="0 0 620 500" style="enable-background:new 0 0 620 500;" xml:space="preserve">
<g>
		<path d="M288.2,304.6c1.1,12.9,3.1,25.6,6,38.2c2.4,10,4.3,22.8,12.1,30.3c1.4,1.3,3.5-0.8,2.1-2.1c-7.6-7.4-9.5-20.9-11.7-30.8c-2.7-11.7-4.5-23.6-5.5-35.6C291,302.7,288,302.7,288.2,304.6L288.2,304.6 M365.8,267.1c34.8,2.2,68.8,11.4,99.8,27.3c1.7,0.9,3.2-1.7,1.5-2.6c-31.5-16.1-66-25.5-101.3-27.7C363.9,264,363.9,267,365.8,267.1L365.8,267.1 M251.6,220.1c14.8-12.2,30.5-23.3,46.9-33.2c-0.7-0.6-1.5-1.1-2.2-1.7c-8.8,27.7-34.4,45-48.2,69.9c-0.6,1.1,0.4,2.7,1.7,2.2c33.9-11.9,66.5-27.1,97.4-45.4c-0.6-0.8-1.2-1.6-1.8-2.4c-20.2,23-40.5,46-60.7,69c-1,1.2,0,2.8,1.5,2.5c19.5-3.4,39.1-6.7,58.6-10.1c1.9-0.3,1.1-3.2-0.8-2.9c-19.5,3.4-39.1,6.7-58.6,10.1c0.5,0.8,1,1.7,1.5,2.5c20.2-23,40.5-46,60.7-69c1.1-1.2-0.3-3.3-1.8-2.4c-30.7,18.2-63.1,33.3-96.7,45.1c0.6,0.7,1.1,1.5,1.7,2.2c13.9-25.1,39.5-42.6,48.5-70.6c0.4-1.3-1.1-2.4-2.2-1.7c-16.6,10.1-32.5,21.3-47.5,33.7C248,219.2,250.1,221.3,251.6,220.1 L251.6,220.1z"/>

</g>
</svg>
