<?xml version="1.0" encoding="utf-8"?>
<!-- Generator: Adobe Illustrator 19.2.0, SVG Export Plug-In . SVG Version: 6.00 Build 0)  -->
<svg version="1.1" id="Layer_1" xmlns="http://www.w3.org/2000/svg" xmlns:xlink="http://www.w3.org/1999/xlink" x="0px" y="0px"
	 viewBox="0 0 620 500" style="enable-background:new 0 0 620 500;" xml:space="preserve">
<g>
	<g>
		<path d="M243.6,187.8c23.7-5.8,46.7-14.1,68.5-25c-0.7-0.7-1.4-1.4-2.1-2.1c-32.3,43.3-63.4,87.5-93.4,132.4
			c-0.7,1,0.5,2.7,1.7,2.2c46.2-17.1,90.2-39.9,130.6-68c-0.7-0.7-1.4-1.4-2.1-2.1c-26.9,43.2-53.7,86.3-80.6,129.5
			c-0.8,1.3,0.8,2.9,2.1,2.1c39.2-24.8,78.4-49.5,117.5-74.3c1.6-1,0.1-3.6-1.5-2.6c-39.2,24.8-78.4,49.5-117.5,74.3
			c0.7,0.7,1.4,1.4,2.1,2.1c26.9-43.2,53.7-86.3,80.6-129.5c0.8-1.2-0.8-2.9-2.1-2.1c-40.3,28-83.9,50.8-129.9,67.7
			c0.6,0.7,1.1,1.5,1.7,2.2c30-44.9,61.2-89.1,93.4-132.4c1-1.3-0.9-2.6-2.1-2.1c-21.6,10.7-44.3,19-67.8,24.7
			C241,185.4,241.7,188.3,243.6,187.8L243.6,187.8z"/>
	</g>
</g>
</svg>
