<?xml version="1.0" encoding="utf-8"?>
<!-- Generator: Adobe Illustrator 19.2.0, SVG Export Plug-In . SVG Version: 6.00 Build 0)  -->
<svg version="1.1" id="Layer_1" xmlns="http://www.w3.org/2000/svg" xmlns:xlink="http://www.w3.org/1999/xlink" x="0px" y="0px"
	 viewBox="0 0 620 500" style="enable-background:new 0 0 620 500;" xml:space="preserve">
<g>

			<path d="M185.9,420.8c4.8-6.1,7.6-13.1,10.4-20.3c3-7.7,6.4-15,10.8-22c9.8-15.6,19.3-31.9,31-46.1c11-13.5,24.2-25,37.5-36.1
				c5.9-4.9,11.8-9.7,17.6-14.7c5.6-4.8,11.3-9.5,14.4-16.3c0.2-0.4-1.7-0.2-1.9,0.3c-3.6,7.9-11,13.3-17.5,18.8
				c-6.1,5.1-12.2,10.1-18.3,15.2c-12.4,10.5-24.6,21.4-34.7,34.2c-10.4,13.1-19,27.8-28,41.9c-4.5,7-8.5,14.2-11.6,22
				c-3.2,8.1-6,16.2-11.4,23.1C183.8,421.4,185.6,421.2,185.9,420.8L185.9,420.8 M234.2,337.1c-0.9-13.8-0.5-28.6-5.9-41.6c-0.2-0.5-2.1,0.2-1.9,0.5c5.4,13,5,27.8,5.9,41.6
				C232.3,338,234.2,337.7,234.2,337.1L234.2,337.1 M243.1,327.9c23.6-12.3,49.1-20.6,75.5-24.5c1-0.1,1.6-1.4,0.2-1.2c-26.7,3.9-52.5,12.2-76.5,24.7
				C241.1,327.6,242.2,328.4,243.1,327.9L243.1,327.9z"/>

</g>
</svg>
