<?xml version="1.0" encoding="utf-8"?>
<!-- Generator: Adobe Illustrator 19.2.0, SVG Export Plug-In . SVG Version: 6.00 Build 0)  -->
<svg version="1.1" id="Layer_1" xmlns="http://www.w3.org/2000/svg" xmlns:xlink="http://www.w3.org/1999/xlink" x="0px" y="0px"
	 viewBox="0 0 620 500" style="enable-background:new 0 0 620 500;" xml:space="preserve">
<g>
	<g>
		<g>
			<path d="M315.5,195.9c-13.8-6.5-27.5-13.4-40.9-20.7c-11.9-6.4-22.6-13-26.4-26.9c-1.2-4.4-3-15.2,4.6-13.4
				c4.5,1.1,8.6,4.2,12.3,6.9c7,5.2,13.5,11.1,19.5,17.2c10.7,11,19.5,23.6,26.7,37.1c0.4,0.7,1.5,0.2,1.8-0.3
				c7.4-12.3,4.6-23.6,1.1-36.6c-4.2-15.4-6.3-35.3,3.8-48.9c1.4-1.9,3.4-4.2,5.7-5.1c1.5-0.6,5.9-0.1,7.2,1.1
				c0.5,0.4,1.3,3.2,1.4,3.5c0.9,2.4,1.7,4.8,2.5,7.2c1.7,5.5,3.1,11.2,3.5,16.9c0.8,12.2-3.9,24.9-8.5,36c-4.2,10-9.1,19.8-14.8,29
				c-0.3,0.5,0.4,0.9,0.8,0.8c12.5-1.7,25.5-4.9,36.6-11c4-2.2,7.6-5,11.8-6.9c7.8-3.5,16.3-5.2,24.8-5.8c8.4-0.6,16.9-0.2,25.3,0.4
				c4.1,0.3,10.4-0.1,12.7,3.9c1.9,3.4,0.9,9.8-0.5,13.2c-3.6,8.6-13.4,10.1-21.6,10.6c-8.4,0.6-16.9,0.8-25.3,1
				c-19.4,0.4-38.8,0.1-58.1-0.2c-0.7,0-1.6,1.1-0.6,1.4c8.2,2.2,15.1,9,21.7,14c7.2,5.4,14.5,10.7,21.5,16.3
				c6.2,5,11.6,10.6,13.3,18.6c1.4,6.6,0.3,14.3-4.2,19.5c-7,8.2-19.2,7.3-27.8,2.2c-7.1-4.2-12.4-10.8-16.7-17.8
				c-9.2-15.1-16-33.8-16.9-51.5c-0.1-1-1.5-0.7-1.9-0.1c-8.1,14.4-16.2,28.8-26.7,41.7c-5.4,6.6-16.9,19.4-25.4,9.4
				c-6.1-7.2-2.1-17.1,2.6-23.8c11.5-16.4,31.6-26.5,48.9-35.7c1.2-0.6,0.1-1.7-0.9-1.2c-16.5,8.8-34.3,18.2-46.8,32.5
				c-6.6,7.7-13.8,21.4-4.6,30c9.2,8.7,20.8-2.4,26.7-9.4c11.1-13.3,19.6-28.4,28-43.4c-0.6,0-1.3,0-1.9-0.1
				c0.8,15.8,6.3,31.3,13.3,45.3c6.1,12.2,15.7,25.6,30,28.6c11.1,2.3,22.5-3,25.7-14.2c3.5-12-2.3-22.8-11.4-30.5
				c-7.5-6.3-15.6-12-23.4-17.9c-6.8-5.1-13.7-11.9-22.1-14.2c-0.2,0.5-0.4,0.9-0.6,1.4c20.4,0.3,40.7,0.6,61.1,0.1
				c9.1-0.2,18.4-0.2,27.5-1.4c5.6-0.7,11.6-2.3,15.6-6.6s6.3-13.3,3.6-18.9c-2.6-5.6-11.8-4.6-16.8-4.9
				c-16.4-1.1-33.6-1.1-48.9,5.9c-5.9,2.7-10.9,6.8-16.8,9.3c-9.7,4.2-20.1,6.8-30.5,8.3c0.3,0.3,0.6,0.6,0.8,0.8
				c5.9-9.4,10.9-19.4,15.1-29.6c4.7-11.4,9.5-24.6,8.2-37.2c-0.7-7.3-2.7-14.5-5.2-21.4c-0.9-2.5-1.8-6.9-4.6-8.2
				c-2.3-1.1-4.9-0.1-7,1c-12.5,6.5-15,24.1-14.4,36.6c0.4,9.7,3.3,18.6,5.7,27.9c2.5,9.7,1.9,18.6-3.4,27.3
				c0.6-0.1,1.2-0.2,1.8-0.3c-11.9-21.8-29.7-43.8-51.6-57.5c-4.9-3.1-14.6-7.7-16.3,1.2c-2.6,13.6,8.3,26.7,19.1,33.1
				c16,9.6,33.1,17.7,50,25.7C315.2,197.6,316.6,196.4,315.5,195.9L315.5,195.9z"/>
		</g>
	</g>
</g>
</svg>
