<?xml version="1.0" encoding="utf-8"?>
<!-- Generator: Adobe Illustrator 19.2.0, SVG Export Plug-In . SVG Version: 6.00 Build 0)  -->
<svg version="1.1" id="Layer_1" xmlns="http://www.w3.org/2000/svg" xmlns:xlink="http://www.w3.org/1999/xlink" x="0px" y="0px"
	 viewBox="0 0 620 500" style="enable-background:new 0 0 620 500;" xml:space="preserve">
<g>
	<g>
		<g>
			<path d="M324.2,189.9c0.9-7.3,7.5-31.6-6.8-30.2c-0.3,0-1,0.2-1.1,0.6c-1.1,6.6-1.2,13.3,0,20c0.3,1.8,0.8,3.5,1.3,5.3
				c0.2,0.8,1.7,3.6,1.5,4.5c-0.7,4.1-9.7-0.8-11.5-1.5c-4.6-1.8-10.7-5.4-15.9-3.9c-2.3,0.7-4.8,2.7-4.6,5.3
				c0.1,2.7,2.2,2.8,4.4,3.6c2.9,1,5.9,1.9,9,2.7c3.6,0.9,7.2,1.5,10.8,1.9c1.3,0.2,7.8,0,8.1,1.3c0.4,1.9-6.8,6.3-8.2,7.2
				c-1.9,1.2-3.8,2.4-5.6,3.7c-4.2,3.1-7.7,6.8-8.4,12.2c0,0.1,0,0.3,0.2,0.3c15.2,4.8,23.7-11,27.7-22.9c-0.6,0.1-1.3,0.3-1.9,0.4
				c3.1,7.7,5.6,16.4,9.8,23.6c2.4,4.1,5.5,6.9,10.3,6.5c0.4,0,1-0.2,1.1-0.6c2-5.3-0.8-10-3.7-14.4c-4.4-6.6-8.9-13.1-13.4-19.6
				c-0.3,0.3-0.7,0.6-1,0.8c5-0.6,10.1-1.2,15.1-1.8c3.4-0.4,7.2-0.4,10.5-1.4c3.1-0.9,7.3-4.4,3.7-7.5c-3.9-3.3-12.3-2.7-16.8-1.7
				c-5.6,1.2-10.6,3.8-14.7,7.7c-0.8,0.7,1.1,0.6,1.5,0.2c4-3.8,8.8-6.4,14.3-7.3c3.4-0.5,10.3-1.1,13.2,1.3
				c7.3,6.1-8.2,7.2-11.4,7.6c-5,0.6-10.1,1.2-15.1,1.8c-0.3,0-1.4,0.4-1,0.8c3.7,5.4,7.4,10.9,11.2,16.3
				c1.3,1.9,10.5,14.9,5.1,16.1c-5,1.1-8.3-8.1-9.7-11.6c-2.4-5.8-4.7-11.7-7-17.5c-0.2-0.6-1.8-0.1-1.9,0.4
				c-1.7,5.3-3.6,10.6-7,15.1c-2.1,2.7-5,5.5-8.4,6.5c-2.2,0.7-8.3,2.1-8.3-1.6c0-1.2,1.5-3.6,2-4.2c5.4-7.5,15.5-9.6,20.4-17.7
				c0.2-0.4-0.2-0.5-0.5-0.5c-6.4-0.2-12.7-0.9-18.9-2.3c-3.2-0.8-6.5-1.5-9.5-2.8c-1.8-0.7-3.7-1-3.8-3.2c-0.2-2.2,7.5-3.3,9.1-3
				c5.6,1.1,10.8,4.6,16.3,6.3c1.6,0.5,3.5,1.1,5.1,0.1c2.7-1.7,0.8-4.7,0.1-7c-1.7-5.5-2.6-11.2-2.5-17c0-1.5-0.2-3.9,0.4-5.3
				c-0.4-1.8,0.3-2.4,2-1.8c1-0.4,1.7-0.2,2.2,0.5c2.2,1.3,2.6,5.1,2.6,7.5c0.1,6.7-1.4,13.7-2.2,20.3
				C322.2,190.9,324.1,190.5,324.2,189.9L324.2,189.9z"/>
		</g>
	</g>
</g>
</svg>
