<?xml version="1.0" encoding="utf-8"?>
<!-- Generator: Adobe Illustrator 19.2.0, SVG Export Plug-In . SVG Version: 6.00 Build 0)  -->
<svg version="1.1" id="Layer_1" xmlns="http://www.w3.org/2000/svg" xmlns:xlink="http://www.w3.org/1999/xlink" x="0px" y="0px"
	 viewBox="0 0 620 500" style="enable-background:new 0 0 620 500;" xml:space="preserve">

		<path d="M274,239.2c-6-10.4,8.6-15.3,16-15.9c7.7-0.7,15.4-1,23.1-0.7c15.6,0.5,33.5,4.4,42,18.9c4.2,7.1,4.8,15.8-0.6,22.5
			c-4.7,5.7-12,8.6-19,10.3c-16.8,4.2-36.6,5.2-53.6,1.2c-18.3-4.3-31.7-19.9-29-39.3c0.3-1.9-2.6-2.7-2.9-0.8
			c-2.4,17.3,7,33.9,23.2,40.5c9.9,4,20.9,4.7,31.4,4.7c11.2,0,22.8-0.9,33.6-4c15.2-4.4,28.3-16.7,21-33.5
			c-7.9-18.2-29.1-23.2-47.1-23.6c-5.9-0.1-11.7,0.1-17.6,0.5c-5.2,0.3-10.7,0.5-15.6,2.6c-7,3-11.9,11-7.7,18.2
			C272.4,242.4,275,240.9,274,239.2L274,239.2 M332,365.4c11.8,18,21.7,37,29.8,56.9c2.8,6.8,5.7,13.1,13.1,15.6c9.4,3.2,20.4,3.2,30.1,2.5c1.9-0.1,1.9-3.1,0-3
			c-9.3,0.7-19.5,0.7-28.5-2.1c-9.7-3-12-14.4-15.6-22.7c-7.4-17-16.3-33.3-26.4-48.8C333.5,362.3,330.9,363.8,332,365.4L332,365.4z"/>



</svg>
