<?xml version="1.0" encoding="utf-8"?>
<!-- Generator: Adobe Illustrator 19.2.0, SVG Export Plug-In . SVG Version: 6.00 Build 0)  -->
<svg version="1.1" id="Layer_1" xmlns="http://www.w3.org/2000/svg" xmlns:xlink="http://www.w3.org/1999/xlink" x="0px" y="0px"
	 viewBox="0 0 620 500" style="enable-background:new 0 0 620 500;" xml:space="preserve">

		<path d="M320.8,67.7c-6,44.5-18.3,88.1-21.9,133c-0.2,1.9,2.8,1.9,3,0c3.6-44.6,15.9-87.9,21.8-132.2
			C323.9,66.6,321,65.8,320.8,67.7L320.8,67.7 M275.6,201.3c-11.8,11-20.4,25.2-24.8,40.8c-2.1,7.6-3.3,15.6-3.3,23.5c0,7.2,0.2,15.5,4.8,21.4c1.2,1.5,3.3-0.6,2.1-2.1
			c-4.7-6-4.2-16-3.8-23.2c0.4-7.4,1.7-14.7,4-21.8c4.5-14,12.4-26.5,23.2-36.5C279.1,202.1,277,200,275.6,201.3L275.6,201.3 M307.4,203.9c15.2,7,30.2,14.7,37.4,30.7c4.1,9.1,6.7,19,7.8,28.8c0.5,4.1,1.1,8.6,0.6,12.7c-0.7,6.6-5,7.8-10.6,8.7
			c-1.9,0.3-1.1,3.2,0.8,2.9c3.6-0.5,7.8-1.3,10.4-4.1c2.6-2.8,2.5-6.6,2.4-10.2c-0.2-11.4-2.2-22.7-6.1-33.4
			c-3.3-9.2-7.9-17.4-15.4-23.8c-7.7-6.5-16.8-10.8-25.8-14.9C307.2,200.5,305.7,203.1,307.4,203.9L307.4,203.9 M267.1,233.7c11.7,0,23.4,0,35.2,0c2.9,0,5.9,0,8.8,0c1.8,0,7.5-1,8.8,0c1.8,1.4,1.9,4.4,1.4,6.2
			c-0.3,1.2-1.3,2.4-1.8,3.5c-1.1,2.1-2.3,4.1-3.6,6.1c-10.6,16.8-25.4,30.5-42.8,40.1c-1,0.6-0.9,2,0,2.6c7.3,5,14.7,10.1,22,15.1
			c4.7,3.2,8.2,5.9,8.5,12c0.2,3.5,0,7.1,0,10.6c0,6.3,0.2,12.9,2.8,18.7c2.6,5.9,7.3,10,12.3,13.9c5.9,4.6,11.3,9,15.2,15.5
			c4,6.5,6.5,13.7,9.4,20.7c4.5,11.2,10.3,23.3,21.5,29.2c7,3.7,15.1,4.4,22.8,5.3c9.7,1,19.5,1.4,29.2,1.1c1.9-0.1,1.9-3.1,0-3
			c-8.2,0.2-16.4,0.1-24.5-0.6c-8.3-0.7-17.7-1.2-25.4-5c-13.5-6.6-18.5-22.3-23.7-35.2c-4.8-11.9-10.8-21.1-21-29.1
			c-6.3-4.8-12.1-9.7-14.3-17.7c-1.9-7.2-1.2-14.7-1.2-22c-0.1-7.1-1.7-11.2-7.6-15.3c-8.1-5.7-16.3-11.2-24.5-16.8
			c0,0.9,0,1.7,0,2.6c20.3-11.2,37.3-28.1,48.3-48.6c1.6-3,4.5-7.4,2.3-10.7c-2.4-3.6-9.4-2.1-13-2.1c-15,0-30,0-44.9,0
			C265.2,230.7,265.2,233.7,267.1,233.7L267.1,233.7z"/>


</svg>
