<?xml version="1.0" encoding="utf-8"?>
<!-- Generator: Adobe Illustrator 19.2.0, SVG Export Plug-In . SVG Version: 6.00 Build 0)  -->
<svg version="1.1" id="Layer_1" xmlns="http://www.w3.org/2000/svg" xmlns:xlink="http://www.w3.org/1999/xlink" x="0px" y="0px"
	 viewBox="0 0 620 500" style="enable-background:new 0 0 620 500;" xml:space="preserve">

		<path d="M268,208.8c8.1-5.5,18.7-6.3,28.3-6.3c10.1,0,20.1,2.3,27.4,9.7c1.4,1.4,3.5-0.7,2.1-2.1c-7.3-7.5-17.4-10.3-27.7-10.6
			c-10.5-0.3-22.7,0.7-31.6,6.7C264.9,207.3,266.4,209.9,268,208.8L268,208.8 M270.3,293.7c-2.7-7.6,5.8-9,11.2-10.1c5.2-1,10.4-1.9,15.7-2.2c4.8-0.3,9.8-0.3,14.6,0.6c2.6,0.5,5.2,1.2,7.7,2.3
			c1.2,0.5,2.4,1,3.5,1.7c0.6,0.3,1.2,0.7,1.7,1.2c2.4,1.4,2.1,3.6-0.9,6.6c-1.8-0.7-2.6,2.2-0.8,2.9c5.3,2.2,8.8-4.4,6.4-8.7
			c-3.7-6.9-15-8.9-22-9.5c-9.7-0.8-19.5,0.9-29,2.8c-6.9,1.4-13.7,5.1-10.8,13.3C268.1,296.3,271,295.5,270.3,293.7L270.3,293.7z"/>

</svg>
